<?xml version="1.0" encoding="utf-8"?>
<!-- Generator: Adobe Illustrator 27.5.0, SVG Export Plug-In . SVG Version: 6.00 Build 0)  -->
<svg version="1.1" xmlns="http://www.w3.org/2000/svg" xmlns:xlink="http://www.w3.org/1999/xlink" x="0px" y="0px"
	 viewBox="0 0 500 500" style="enable-background:new 0 0 500 500;" xml:space="preserve">
<g id="Background">
	<g>
		<rect style="opacity:0.3;fill:#FFCA85;" width="500" height="500"/>
		<path style="opacity:0.3;fill:#FFCA85;" d="M454.539,349.083c2.398-4.687,4.572-9.495,6.495-14.417
			c10.579-27.08,13.479-56.706,11.862-85.734c-3.572-64.11-29.142-139.28-89.024-171.035c-18.057-9.575-35.302-18.969-56.269-19.663
			c-43.98-1.456-81.95,30.676-108.743,65.583c-26.793,34.907-48.022,75.129-82.518,102.45
			c-20.058,15.885-43.683,26.61-64.711,41.187c-21.027,14.577-40.278,34.692-44.706,59.892c-1.271,7.236-1.213,14.553-0.07,21.737
			H454.539z"/>
	</g>
</g>
<g id="Objects">
	<g>
		<g>
			
				<line style="fill:none;stroke:#383838;stroke-width:0.5669;stroke-linecap:round;stroke-linejoin:round;stroke-miterlimit:10;" x1="55.78" y1="349.139" x2="462.823" y2="349.139"/>
			<g>
				<path style="fill:#1B75BC;" d="M332.435,164.159c-15.417,0-27.915,12.498-27.915,27.915c0,7.87,3.262,14.974,8.501,20.048
					l-6.225,13.728l14.279-8.279c3.472,1.549,7.314,2.418,11.361,2.418c15.417,0,27.915-12.498,27.915-27.915
					S347.853,164.159,332.435,164.159z"/>
				
					<text transform="matrix(1 0 0 1 314.085 198.4858)" style="fill:#FFFFFF; font-family:'CourierNewPS-BoldMT'; font-size:20.3588px;">C++</text>
			</g>
			<g>
				<path style="fill:#262262;" d="M382.19,241.856h-43.679c-0.33,0-0.601,0.27-0.601,0.601v5.574h-10.962l10.962,9.7v26.003
					c0,0.33,0.27,0.601,0.601,0.601h43.679c0.331,0,0.601-0.27,0.601-0.601v-41.277C382.791,242.126,382.521,241.856,382.19,241.856
					z"/>
				
					<text transform="matrix(1 0 0 1 341.623 268.3379)" style="fill:#FFFFFF; font-family:'CourierNewPS-BoldMT'; font-size:20.3588px;">PHP</text>
			</g>
			<g>
				<path style="fill:#DF4438;" d="M344.853,100.215h-82.722c-0.453,0-0.824,0.371-0.824,0.824v40.831
					c0,0.453,0.371,0.824,0.824,0.824h12.582l1.038,11.585l9.277-11.585h59.825c0.453,0,0.824-0.371,0.824-0.824v-40.831
					C345.677,100.586,345.306,100.215,344.853,100.215z"/>
				
					<text transform="matrix(1 0 0 1 280.3018 127.246)" style="fill:#FFFFFF; font-family:'CourierNewPS-BoldMT'; font-size:20.3588px;">HTML</text>
			</g>
			<g>
				<path style="fill:#8DC63F;" d="M222.242,107.422H139.52c-0.453,0-0.824,0.371-0.824,0.824v40.831
					c0,0.453,0.371,0.824,0.824,0.824h59.825l9.277,11.585l1.037-11.585h12.582c0.453,0,0.824-0.371,0.824-0.824v-40.831
					C223.065,107.792,222.695,107.422,222.242,107.422z"/>
				
					<text transform="matrix(1 0 0 1 161.8892 132.499)" style="fill:#FFFFFF; font-family:'CourierNewPS-BoldMT'; font-size:20.3588px;">&lt;/&gt;</text>
			</g>
			<g>
				<path style="fill:#FBB040;" d="M167.188,174.717h-43.679c-0.33,0-0.601,0.27-0.601,0.601v41.277c0,0.331,0.27,0.601,0.601,0.601
					h20.559l9.277,11.585l1.038-11.585h12.805c0.33,0,0.601-0.27,0.601-0.601v-41.277
					C167.788,174.987,167.518,174.717,167.188,174.717z"/>
				<text transform="matrix(1 0 0 1 132.9341 204.7905)"><tspan x="0" y="0" style="fill:#FFFFFF; font-family:'CourierNewPS-BoldMT'; font-size:27.326px;">J</tspan><tspan x="16.398" y="-4.554" style="fill:#FFFFFF; font-family:'CourierNewPS-BoldMT'; font-size:13.663px;">S</tspan></text>
			</g>
		</g>
		<g>
			<g>
				<path style="fill:#442614;" d="M216.632,218.425c-3.112,3.889-7.919,6.935-8.713,11.852c-0.612,3.789,1.445,7.487,3.804,10.514
					c2.359,3.027,5.156,5.853,6.447,9.467c1.306,3.654,0.911,7.657,0.889,11.537c-0.023,3.88,0.476,8.074,3.106,10.927
					c2.391,2.594,6.043,3.538,9.501,4.24c6.965,1.414,14.029,2.343,21.123,2.779c6.706,0.412,14.449-0.077,18.571-5.383
					c5.553-7.146,1.066-18.54,6.205-25.99c1.201-1.741,2.848-3.12,4.249-4.704c3.928-4.438,5.827-10.919,3.852-16.508
					c-1.504-4.256-4.964-7.514-7.068-11.508c-2.422-4.598-2.94-9.964-2.83-15.159c0.045-2.124,0.182-4.292-0.413-6.332
					c-0.668-2.293-2.206-4.227-3.84-5.969c-4.768-5.082-10.771-9.127-17.497-10.948s-14.191-1.289-20.284,2.093
					c-3.203,1.778-5.951,4.271-8.509,6.894c-4.54,4.656-6.406,9.143-5.066,15.502C221.405,207.64,220.505,213.585,216.632,218.425z"
					/>
				
					<path style="fill:none;stroke:#B74913;stroke-width:0.2835;stroke-linecap:round;stroke-linejoin:round;stroke-miterlimit:10;" d="
					M227.598,201.3c-0.407,5.357-1.555,10.958-5.12,14.977c-1.893,2.134-4.374,3.706-6.14,5.947
					c-2.421,3.072-3.267,7.324-2.205,11.089c1.304,4.624,5.123,8.092,7.162,12.442c1.604,3.421,2.046,7.255,2.438,11.013
					c2.066-1.11,2.975-3.693,2.799-6.032c-0.176-2.339-1.226-4.509-2.232-6.627c-1.007-2.118-2.006-4.324-2.071-6.668
					c-0.088-3.214,1.59-6.205,3.483-8.805c1.892-2.599,4.08-5.054,5.281-8.036c1.946-4.832,1.03-10.284,0.085-15.408
					c2.848,7.237,5.739,15.123,3.624,22.607c-0.975,3.451-2.98,6.6-3.497,10.148c-0.549,3.768,0.663,7.624,2.625,10.888
					c1.961,3.264,4.636,6.03,7.285,8.765c0.297-6.992,0.596-14.001,1.636-20.922c0.223-1.483,0.503-3.018,1.376-4.237
					c0.788-1.101,1.977-1.83,3.052-2.653c3.706-2.842,6.224-7.049,7.568-11.522c1.344-4.474,1.577-9.217,1.304-13.88
					c0.43,5.182,3.332,10.174,2.452,15.299c-0.415,2.418-1.65,4.618-2.259,6.995c-0.196,0.764-0.326,1.568-0.167,2.34
					c0.212,1.027,0.902,1.876,1.533,2.713c2.097,2.786,3.767,5.965,4.349,9.404c0.959,5.669-1.09,11.367-3.105,16.752
					c1.899-0.397,3.321-1.93,4.608-3.382c1.763-1.988,3.565-4.044,4.454-6.548c1.627-4.584-0.11-9.605-1.81-14.163
					c-1.699-4.558-3.38-9.616-1.653-14.163c1.314-3.459,4.486-6.195,4.882-9.873c-1.233,1.605-0.249,3.918,0.867,5.607
					c1.579,2.39,3.388,4.632,4.792,7.13s2.4,5.331,2.156,8.186c-0.215,2.518-1.365,4.844-2.372,7.163
					c-2.567,5.914-4.288,12.719-1.993,18.744c0.697-5.888,4.536-10.864,6.739-16.369c1.946-4.865,2.581-10.451,0.684-15.335
					c-1.382-3.556-3.973-6.479-6.131-9.626c-2.158-3.146-3.964-6.864-3.419-10.64c0.107-0.739,0.116-1.774-0.616-1.918"/>
				<g>
					<path style="fill:#EEB399;" d="M239.181,218.56c0,0-1.283,25.905-2.909,33.306c-1.626,7.401,7.034,10.853,13.924,10.871
						c4.942,0.013,12.801-2.574,10.989-10.177c0,0-5.374-25.674-4.97-34H239.181z"/>
					<path style="fill:#D89E87;" d="M256.215,218.56h-17.034c0,0-0.279,5.621-0.74,12.374c3.7,1.702,9.967,3.208,18.991,0.871
						C256.638,226.495,256.074,221.468,256.215,218.56z"/>
				</g>
				<path style="fill:#EEB399;" d="M295.755,261.241c-2.598-7.321-9.168-9.567-20.627-11.031
					c-11.459-1.464-17.531-7.224-17.531-7.224h-0.976h-15.719h-0.976c0,0-6.071,5.76-17.531,7.224
					c-11.46,1.464-18.029,3.709-20.627,11.031c-2.597,7.322,0.917,21.086,9.32,33.776c8.404,12.69,5.653,40.512,5.653,40.512h24.16
					h15.719h24.16c0,0-2.75-27.821,5.653-40.512C294.839,282.326,298.353,268.562,295.755,261.241z"/>
				<g>
					<path style="fill:#EEB399;" d="M218.185,184.803c0,0-1.325,40.211,28.054,43.326c29.379,3.114,31.367-33.661,31.367-43.326
						c0,0-1.335-23.081-29.715-23.284C219.51,161.316,217.983,179.077,218.185,184.803z"/>
					<path style="fill:#D89E87;" d="M262.64,164.348c-4.839-1.132-9.99-0.953-14.705,0.625c-2.521,0.844-4.902,2.058-7.228,3.347
						c-5.328,2.952-10.511,6.396-14.364,11.113c-2.14,2.619-3.823,5.574-5.496,8.514c-0.534,0.939-1.617,2.654-2.293,4.375
						c0.15,1.445,0.363,3.039,0.654,4.73c2.02,0.975,6.326,0.018,8.094-0.263c3.316-0.528,6.557-1.523,9.598-2.947
						c1.625-0.76,7.827-3.454,8.233-5.371c-0.568,2.684-1.839,5.216-3.651,7.276c5.606-0.99,10.627-4.849,13.027-10.012
						c0.574,2.724,0.698,5.542,0.364,8.306c1.479-1.979,2.707-4.145,3.647-6.429c4.335,5.818,10.749,10.035,17.796,11.756
						c1.099-6.113,1.29-11.61,1.29-14.566C277.606,184.803,276.774,170.549,262.64,164.348z"/>
					<g>
						<path style="fill:#EEB399;" d="M278.031,198.14c1.442-0.11,2.796,0.905,3.459,2.19c0.663,1.286,0.752,2.789,0.682,4.234
							c-0.071,1.455-0.298,2.928-0.935,4.238c-0.637,1.31-1.727,2.449-3.113,2.898c-1.386,0.449-3.062,0.097-3.977-1.036
							C271.678,207.604,273.397,198.493,278.031,198.14z"/>
						<g>
							<path style="fill:#A5583D;" d="M276.644,210.158c-0.092,0-0.177-0.061-0.203-0.154c-1.714-6.198,1.845-10.246,1.881-10.286
								c0.079-0.087,0.209-0.092,0.297-0.016c0.086,0.077,0.093,0.21,0.016,0.297c-0.035,0.039-3.44,3.925-1.789,9.893
								c0.03,0.112-0.035,0.227-0.147,0.259C276.681,210.156,276.662,210.158,276.644,210.158z"/>
							<path style="fill:#A5583D;" d="M276.298,208.502c-0.074,0-0.145-0.039-0.184-0.109c-0.056-0.102-0.019-0.229,0.082-0.285
								c3.284-1.809,1.156-6.685,1.134-6.734c-0.047-0.106,0-0.23,0.106-0.277c0.104-0.045,0.23,0,0.277,0.106
								c0.023,0.053,2.307,5.278-1.315,7.273C276.368,208.493,276.333,208.502,276.298,208.502z"/>
						</g>
					</g>
					<g>
						<path style="fill:#EEB399;" d="M219.493,198.14c-1.442-0.11-2.796,0.905-3.459,2.19c-0.663,1.286-0.752,2.789-0.682,4.234
							c0.071,1.455,0.298,2.928,0.935,4.238c0.637,1.31,1.727,2.449,3.113,2.898c1.386,0.449,3.063,0.097,3.977-1.036
							C225.846,207.604,224.127,198.493,219.493,198.14z"/>
						<g>
							<path style="fill:#A5583D;" d="M220.88,210.158c0.092,0,0.176-0.061,0.202-0.154c1.714-6.198-1.845-10.246-1.881-10.286
								c-0.079-0.087-0.209-0.092-0.297-0.016c-0.086,0.077-0.093,0.21-0.016,0.297c0.035,0.039,3.44,3.925,1.788,9.893
								c-0.03,0.112,0.035,0.227,0.147,0.259C220.843,210.156,220.862,210.158,220.88,210.158z"/>
							<path style="fill:#A5583D;" d="M221.226,208.502c0.074,0,0.145-0.039,0.184-0.109c0.056-0.102,0.019-0.229-0.082-0.285
								c-3.284-1.809-1.156-6.685-1.134-6.734c0.047-0.106,0-0.23-0.106-0.277c-0.104-0.045-0.23,0-0.277,0.106
								c-0.023,0.053-2.307,5.278,1.315,7.273C221.156,208.493,221.191,208.502,221.226,208.502z"/>
						</g>
					</g>
					<path style="fill:#442614;" d="M225.208,200.374c0.054,1.26,0.283,2.52,0.163,3.776c-0.119,1.256-0.668,2.563-1.77,3.178
						c-0.25-2.466-1.448-4.75-2.936-6.733c-0.575-0.767-1.227-1.577-1.244-2.536c0.989-0.427,1.977-0.854,2.966-1.282
						c0.589-0.255,1.139-0.593,1.727-0.852c0.218-0.096,1.589-0.484,1.613-0.54C225.033,196.96,225.136,198.695,225.208,200.374z"/>
					<path style="fill:#442614;" d="M270.901,200.374c-0.054,1.26-0.283,2.52-0.163,3.776c0.119,1.256,0.668,2.563,1.77,3.178
						c0.25-2.466,1.448-4.75,2.936-6.733c0.575-0.767,1.227-1.577,1.244-2.536c-0.989-0.427-1.978-0.854-2.966-1.282
						c-0.589-0.255-1.139-0.593-1.727-0.852c-0.218-0.096-1.589-0.484-1.613-0.54C271.076,196.96,270.973,198.695,270.901,200.374z"
						/>
					<path style="fill:#442614;" d="M219.493,198.14c0,0,25.465-7.911,31.735-19.701c0,0-3.082,13.277-7.147,16.477
						c0,0,9.772-5.239,10.811-14.643c0,0,3.285,9.624,1.271,13.919c0,0,3.188-8.372,2.322-14.642c0,0,10.034,17.049,17.786,20.099
						c0,0,14.569-39.993-26.456-39.39C208.788,160.862,216.694,187.192,219.493,198.14z"/>
				</g>
				<g>
					<g>
						<path style="fill:#A5583D;" d="M253.786,198.733c0.239,1.187,0.587,2.399,1.177,3.379c0.583,1.004,1.456,1.631,2.495,1.619
							c1.062,0.032,1.927-0.557,2.468-1.557c0.284-0.484,0.481-1.049,0.623-1.63c0.167-0.576,0.263-1.191,0.34-1.787l0.003-0.024
							c0.02-0.154,0.161-0.263,0.315-0.243c0.131,0.017,0.229,0.122,0.243,0.248c0.145,1.312,0.044,2.643-0.511,3.937
							c-0.278,0.642-0.726,1.255-1.346,1.708c-0.634,0.458-1.414,0.617-2.148,0.629c-0.743,0.001-1.517-0.254-2.123-0.699
							c-0.618-0.445-1.036-1.057-1.331-1.676c-0.597-1.251-0.801-2.56-0.766-3.876c0.004-0.155,0.133-0.278,0.288-0.274
							c0.134,0.003,0.243,0.1,0.268,0.225L253.786,198.733z"/>
						<path style="fill:#A5583D;" d="M243.442,198.76c0.034,1.316-0.169,2.626-0.766,3.876c-0.295,0.619-0.712,1.231-1.331,1.676
							c-0.607,0.445-1.38,0.7-2.124,0.699c-0.734-0.012-1.514-0.171-2.148-0.629c-0.62-0.453-1.069-1.066-1.346-1.708
							c-0.555-1.294-0.656-2.625-0.511-3.937c0.017-0.154,0.156-0.265,0.31-0.248c0.131,0.015,0.232,0.118,0.248,0.243l0.003,0.024
							c0.077,0.596,0.172,1.212,0.34,1.787c0.142,0.581,0.338,1.146,0.623,1.63c0.541,1,1.406,1.589,2.468,1.557
							c1.039,0.013,1.912-0.615,2.495-1.619c0.59-0.98,0.938-2.192,1.177-3.379l0.004-0.021c0.031-0.152,0.179-0.251,0.331-0.22
							C243.348,198.518,243.439,198.632,243.442,198.76z"/>
					</g>
					<g>
						<path style="fill:#E53D2E;" d="M248.495,205.559c0.232,0.724,0.402,1.475,0.504,2.242l0,0l-0.477-0.227
							c0.401-0.287,0.824-0.541,1.264-0.76c0.22-0.109,0.444-0.21,0.671-0.302c0.232-0.082,0.433-0.198,0.765-0.225
							c0.161-0.012,0.374,0.049,0.503,0.189c0.13,0.134,0.182,0.286,0.217,0.422c0.062,0.267,0.066,0.533,0.03,0.792
							c-0.072,0.519-0.293,0.979-0.545,1.399c-0.517,0.829-1.151,1.569-1.874,2.211c-0.72,0.619-1.526,1.253-2.514,1.384
							c-0.034,0.004-0.064-0.019-0.069-0.052c-0.004-0.033,0.019-0.063,0.051-0.069c0.931-0.162,1.687-0.802,2.368-1.44
							c0.678-0.653,1.267-1.404,1.726-2.214c0.221-0.404,0.4-0.834,0.439-1.267c0.05-0.409-0.077-0.971-0.308-0.875
							c-0.147,0.011-0.38,0.124-0.59,0.215c-0.211,0.096-0.418,0.2-0.621,0.311c-0.406,0.223-0.792,0.48-1.156,0.762l-0.016,0.013
							c-0.125,0.097-0.304,0.074-0.401-0.051c-0.044-0.056-0.063-0.124-0.06-0.19l0,0c0.041-0.737,0.017-1.484-0.074-2.229
							c-0.006-0.047,0.028-0.09,0.075-0.096C248.444,205.494,248.482,205.52,248.495,205.559z"/>
					</g>
					<g>
						<path style="fill:#A5583D;" d="M236.173,213.544c1.18,1.156,2.518,2.161,3.944,2.978c1.422,0.832,2.969,1.43,4.566,1.784
							c0.792,0.22,1.616,0.264,2.43,0.343c0.82-0.009,1.643,0.019,2.459-0.115c1.649-0.154,3.225-0.712,4.793-1.293
							c0.012-0.006,0.027-0.001,0.033,0.011c0.006,0.011-0.001,0.026-0.012,0.033c-0.757,0.352-1.502,0.761-2.298,1.04
							c-0.805,0.252-1.607,0.54-2.453,0.643c-1.668,0.343-3.411,0.257-5.079-0.076c-1.675-0.338-3.275-1.003-4.729-1.882
							c-1.438-0.908-2.761-1.994-3.828-3.32c-0.039-0.049-0.031-0.12,0.017-0.159c0.045-0.036,0.11-0.032,0.15,0.007
							L236.173,213.544z"/>
					</g>
					
						<ellipse transform="matrix(0.7071 -0.7071 0.7071 0.7071 -72.0945 228.1062)" style="opacity:0.3;fill:#FFFFFF;" cx="239.301" cy="201.079" rx="7.278" ry="7.278"/>
					
						<ellipse transform="matrix(0.2305 -0.9731 0.9731 0.2305 2.7564 405.6433)" style="opacity:0.3;fill:#FFFFFF;" cx="257.849" cy="201.079" rx="7.278" ry="7.278"/>
					
						<ellipse transform="matrix(0.7071 -0.7071 0.7071 0.7071 -72.0945 228.1062)" style="fill:none;stroke:#231F20;stroke-width:0.5669;stroke-miterlimit:10;" cx="239.301" cy="201.079" rx="7.278" ry="7.278"/>
					
						<ellipse transform="matrix(0.2305 -0.9731 0.9731 0.2305 2.7564 405.6433)" style="fill:none;stroke:#231F20;stroke-width:0.5669;stroke-miterlimit:10;" cx="257.849" cy="201.079" rx="7.278" ry="7.278"/>
					<path style="fill:none;stroke:#231F20;stroke-width:0.5669;stroke-miterlimit:10;" d="M246.58,201.748c0,0,1.957-1.302,3.991,0
						"/>
					
						<path style="fill:none;stroke:#231F20;stroke-width:0.5669;stroke-linecap:round;stroke-linejoin:round;stroke-miterlimit:10;" d="
						M265.128,201.079c0,0,8.192,0.065,10.507-1.43"/>
					
						<path style="fill:none;stroke:#231F20;stroke-width:0.5669;stroke-linecap:round;stroke-linejoin:round;stroke-miterlimit:10;" d="
						M231.943,201.079c0,0-9.768-1.072-12.45-2.939"/>
				</g>
				<path style="fill:#442614;" d="M258.927,188.907c-0.577,0.061-1.328,0.41-1.765,0.794c-0.329,0.288-0.546,0.747-0.427,1.167
					c0.274,0.966,2.935,0.745,3.718,0.87c1.458,0.233,2.9,0.625,4.214,1.313c0.263,0.138,0.542,0.292,0.837,0.258
					c0.538-0.061,0.816-0.748,0.646-1.262c-0.169-0.514-0.629-0.872-1.082-1.168c-1.153-0.755-2.425-1.33-3.754-1.697
					C260.538,188.968,259.729,188.823,258.927,188.907z"/>
				<path style="fill:#442614;" d="M239.669,189.913c0.577,0.061,1.328,0.41,1.765,0.794c0.328,0.288,0.546,0.746,0.427,1.167
					c-0.274,0.966-2.935,0.745-3.719,0.87c-1.458,0.233-2.9,0.625-4.214,1.313c-0.263,0.138-0.542,0.292-0.837,0.258
					c-0.538-0.061-0.816-0.748-0.646-1.262c0.169-0.514,0.629-0.872,1.082-1.168c1.153-0.755,2.425-1.33,3.753-1.697
					C238.058,189.974,238.868,189.829,239.669,189.913z"/>
				
					<path style="fill:none;stroke:#B74913;stroke-width:0.2835;stroke-linecap:round;stroke-linejoin:round;stroke-miterlimit:10;" d="
					M258.444,161.517c0,0-46.249-4.977-38.252,35.608c0,0,31.856-15.742,39.235-33.574c0,0-0.176,18.986,16.207,34.581
					C275.635,198.132,285.746,167.478,258.444,161.517z"/>
				
					<path style="fill:none;stroke:#B74913;stroke-width:0.2835;stroke-linecap:round;stroke-linejoin:round;stroke-miterlimit:10;" d="
					M259.427,162.566c0,0-36.779-0.492-39.235,34.558c0,0,19.804-29.147,39.235-33.574c0,0,15.812,16.157,16.207,34.581
					C275.635,198.132,280.212,170.806,259.427,162.566z"/>
				
					<path style="fill:none;stroke:#B74913;stroke-width:0.2835;stroke-linecap:round;stroke-linejoin:round;stroke-miterlimit:10;" d="
					M253.222,178.439c5.232-6.019,6.206-14.889,6.206-14.889s-2.537,9.414-1.995,16.799"/>
				<g>
					<path style="fill:#442614;" d="M258.531,161.226c-2.568-0.88-5.305-1.294-8.024-1.5c-2.728-0.195-5.471-0.117-8.195,0.145
						c-2.716,0.33-5.422,0.784-8.065,1.509c-1.337,0.302-2.622,0.788-3.936,1.174c-1.295,0.445-2.566,0.959-3.85,1.435
						c-0.028,0.013-0.06,0-0.073-0.027c-0.013-0.028,0.003-0.062,0.031-0.074c1.284-0.484,2.555-1.005,3.85-1.458
						c1.314-0.393,2.6-0.887,3.939-1.197c2.646-0.741,5.359-1.21,8.083-1.556c2.733-0.277,5.488-0.371,8.233-0.189
						c2.741,0.195,5.479,0.589,8.11,1.475c0.074,0.025,0.114,0.105,0.089,0.18c-0.025,0.074-0.105,0.114-0.18,0.089l-0.001,0
						L258.531,161.226z"/>
				</g>
				<g>
					<path style="fill:#442614;" d="M271.562,166.614c1.547,0.902,2.822,2.144,3.932,3.506c1.105,1.37,1.995,2.9,2.715,4.499
						c0.692,1.614,1.208,3.298,1.551,5.016c0.194,0.854,0.266,1.731,0.404,2.595c0.075,0.872,0.117,1.747,0.177,2.619
						c0.002,0.022-0.015,0.04-0.036,0.042c-0.021,0.001-0.04-0.018-0.042-0.039c-0.069-0.87-0.119-1.742-0.202-2.61
						c-0.147-0.86-0.227-1.732-0.428-2.58c-0.358-1.707-0.887-3.375-1.589-4.968c-0.73-1.579-1.626-3.084-2.729-4.426
						c-1.102-1.331-2.393-2.553-3.88-3.4l-0.013-0.008c-0.068-0.039-0.092-0.125-0.053-0.193c0.039-0.068,0.125-0.092,0.193-0.053
						L271.562,166.614z"/>
				</g>
				<g>
					<path style="fill:#442614;" d="M220.023,214.077c-2.08,2.234-4.248,4.383-6.557,6.379c-1.157,0.997-2.396,1.889-3.379,3.054
						c-0.986,1.138-1.865,2.437-2.246,3.906c-0.002,0.017-0.017,0.029-0.034,0.028c-0.017-0.002-0.028-0.021-0.027-0.038
						c0.369-1.498,1.237-2.81,2.218-3.972c0.977-1.185,2.219-2.104,3.354-3.107c2.276-2.017,4.416-4.19,6.46-6.439
						c0.051-0.059,0.141-0.065,0.2-0.014c0.059,0.051,0.065,0.141,0.014,0.2L220.023,214.077z"/>
				</g>
				<g>
					<path style="fill:#442614;" d="M277.179,247.92c1.291-1.03,2.564-2.086,3.818-3.163c1.248-1.082,2.492-2.177,3.65-3.347
						c1.122-1.193,1.755-2.771,2.191-4.348c0.432-1.59,0.668-3.236,0.751-4.882c0-0.028,0.023-0.051,0.051-0.051
						c0.028,0,0.051,0.025,0.051,0.053c-0.068,1.658-0.29,3.31-0.71,4.917c-0.427,1.594-1.046,3.198-2.195,4.444
						c-1.158,1.192-2.391,2.297-3.633,3.394c-1.247,1.091-2.51,2.159-3.797,3.205c-0.061,0.049-0.15,0.04-0.199-0.021
						c-0.049-0.061-0.04-0.15,0.02-0.199L277.179,247.92z"/>
				</g>
				<g>
					<path style="fill:#E53D2E;" d="M265.103,206.982c0,0.25-0.203,0.453-0.453,0.453c-0.25,0-0.453-0.203-0.453-0.453
						c0-0.25,0.203-0.453,0.453-0.453C264.9,206.53,265.103,206.732,265.103,206.982z"/>
					<path style="fill:#E53D2E;" d="M267.297,205.788c0,0.25-0.203,0.453-0.453,0.453c-0.25,0-0.453-0.203-0.453-0.453
						c0-0.25,0.203-0.453,0.453-0.453C267.094,205.336,267.297,205.538,267.297,205.788z"/>
					<path style="fill:#E53D2E;" d="M268.202,208.868c0,0.25-0.203,0.453-0.453,0.453s-0.453-0.203-0.453-0.453
						c0-0.25,0.203-0.453,0.453-0.453S268.202,208.618,268.202,208.868z"/>
				</g>
				<g>
					<path style="fill:#E53D2E;" d="M230.779,206.982c0,0.25,0.203,0.453,0.453,0.453c0.25,0,0.453-0.203,0.453-0.453
						c0-0.25-0.203-0.453-0.453-0.453C230.982,206.53,230.779,206.732,230.779,206.982z"/>
					<circle style="fill:#E53D2E;" cx="229.038" cy="205.788" r="0.453"/>
					<path style="fill:#E53D2E;" d="M227.68,208.868c0,0.25,0.203,0.453,0.453,0.453c0.25,0,0.453-0.203,0.453-0.453
						c0-0.25-0.203-0.453-0.453-0.453C227.882,208.415,227.68,208.618,227.68,208.868z"/>
				</g>
				<path style="fill:#F95B5E;" d="M201.769,261.241c-2.597,7.322,0.917,21.086,9.32,33.776c8.404,12.69,5.654,40.512,5.654,40.512
					h24.16h15.719h24.16c0,0-2.75-27.821,5.653-40.512c8.404-12.69,11.918-26.454,9.32-33.776
					c-2.389-6.734-8.15-9.171-17.973-10.658c-11.779,5.975-23.406,7.307-23.406,7.307l-7.243,12.966l-6.018-13.255
					c-8.68,1.194-17.95-3.501-23.131-6.734C209.226,252.383,204.012,254.918,201.769,261.241z"/>
				<g>
					<path style="fill:#F95B5E;" d="M240.947,348.099l-19.592-33.522l5.478-47.847c0.811-7.084-4.274-13.484-11.358-14.295
						c-7.084-0.811-13.484,4.274-14.295,11.358l-5.947,51.944l-0.168,1.467c-0.306,2.81,0.618,5.729,2.771,7.885l31.744,31.776
						c2.27,2.271,5.869,2.829,8.77,1.133C241.801,355.981,242.964,351.549,240.947,348.099z"/>
					<g>
						<path style="fill:#772020;" d="M217.658,299.448c-0.116,0-0.222-0.077-0.255-0.194l-1.639-5.971
							c-1.046-3.813-2.127-7.755-2.209-11.798c-0.093-4.514,1.129-9.138,3.44-13.019c0.075-0.125,0.237-0.166,0.362-0.091
							c0.126,0.075,0.167,0.236,0.092,0.362c-2.261,3.797-3.457,8.32-3.367,12.737c0.081,3.978,1.154,7.888,2.191,11.669
							l1.639,5.971c0.039,0.141-0.044,0.285-0.185,0.325C217.704,299.445,217.681,299.448,217.658,299.448z"/>
						<path style="fill:#772020;" d="M213.818,278.679c-0.123,0-0.234-0.086-0.259-0.213c-0.546-2.767-0.821-5.599-0.817-8.42
							c0.001-0.147,0.119-0.264,0.264-0.264h0.001c0.146,0,0.264,0.118,0.264,0.264c-0.004,2.787,0.267,5.585,0.807,8.318
							c0.028,0.143-0.065,0.282-0.208,0.31C213.852,278.678,213.835,278.679,213.818,278.679z"/>
					</g>
					
						<path style="fill:none;stroke:#772020;stroke-width:0.5669;stroke-linecap:round;stroke-linejoin:round;stroke-miterlimit:10;" d="
						M217.658,299.448v11.4c0,0,2.848,2.276,8.07,11.211c5.222,8.935,8.255,14.125,8.255,14.125"/>
					
						<path style="fill:none;stroke:#772020;stroke-width:0.5669;stroke-linecap:round;stroke-linejoin:round;stroke-miterlimit:10;" d="
						M217.658,310.849c0,0-0.618-2.806-9.073-1.42"/>
					
						<path style="fill:none;stroke:#772020;stroke-width:0.5669;stroke-linecap:round;stroke-linejoin:round;stroke-miterlimit:10;" d="
						M206.118,311.83c0,0,4.143-2.492,10.127-0.981"/>
				</g>
				
					<path style="fill:none;stroke:#772020;stroke-width:0.5669;stroke-linecap:round;stroke-linejoin:round;stroke-miterlimit:10;" d="
					M226.845,309.967c14.811,0.14,29.601,2.288,43.839,6.367"/>
				
					<path style="fill:none;stroke:#772020;stroke-width:0.5669;stroke-linecap:round;stroke-linejoin:round;stroke-miterlimit:10;" d="
					M239.078,314.092c5.733,1.97,11.653,3.395,17.655,4.248"/>
				<g>
					<path style="fill:#F95B5E;" d="M256.592,348.099l19.592-33.522l-5.478-47.847c-0.811-7.084,4.274-13.484,11.358-14.295
						c7.084-0.811,13.484,4.274,14.295,11.358l5.947,51.944l0.168,1.467c0.306,2.81-0.618,5.729-2.771,7.885l-31.744,31.776
						c-2.27,2.271-5.869,2.829-8.77,1.133C255.738,355.981,254.576,351.549,256.592,348.099z"/>
					<g>
						<path style="fill:#772020;" d="M279.882,299.448c0.116,0,0.222-0.077,0.255-0.194l1.639-5.971
							c1.046-3.813,2.127-7.755,2.209-11.798c0.093-4.514-1.129-9.138-3.44-13.019c-0.075-0.125-0.237-0.166-0.362-0.091
							c-0.125,0.075-0.166,0.236-0.092,0.362c2.261,3.797,3.457,8.32,3.366,12.737c-0.081,3.978-1.154,7.888-2.191,11.669
							l-1.639,5.971c-0.039,0.141,0.044,0.285,0.185,0.325C279.835,299.445,279.858,299.448,279.882,299.448z"/>
						<path style="fill:#772020;" d="M283.721,278.679c0.123,0,0.234-0.086,0.259-0.213c0.546-2.767,0.821-5.599,0.817-8.42
							c-0.001-0.147-0.119-0.264-0.264-0.264h0c-0.146,0-0.264,0.118-0.264,0.264c0.004,2.787-0.267,5.585-0.807,8.318
							c-0.028,0.143,0.065,0.282,0.208,0.31C283.687,278.678,283.704,278.679,283.721,278.679z"/>
					</g>
					
						<path style="fill:none;stroke:#772020;stroke-width:0.5669;stroke-linecap:round;stroke-linejoin:round;stroke-miterlimit:10;" d="
						M279.882,299.448v11.4c0,0-2.848,2.276-8.07,11.211c-5.222,8.935-8.255,14.125-8.255,14.125"/>
					
						<path style="fill:none;stroke:#772020;stroke-width:0.5669;stroke-linecap:round;stroke-linejoin:round;stroke-miterlimit:10;" d="
						M279.882,310.849c0,0,0.618-2.806,9.073-1.42"/>
					
						<path style="fill:none;stroke:#772020;stroke-width:0.5669;stroke-linecap:round;stroke-linejoin:round;stroke-miterlimit:10;" d="
						M291.421,311.83c0,0-4.143-2.492-10.127-0.981"/>
				</g>
			</g>
			<g>
				<polygon style="fill:#D1D3D4;" points="313.349,364.227 184.132,364.227 171.346,294.205 326.193,294.205 				"/>
				<path style="fill:#FFFFFF;" d="M244.496,322.122c-0.272-0.284-0.582-0.571-0.643-0.926c-0.117-0.676,0.773-1.235,1.62-1.263
					c1.423-0.047,2.63,0.962,3.013,2.067c0.383,1.105,0.139,2.28-0.107,3.41c2.889-0.538,6.084,1.387,6.259,3.772
					c0.088,1.198-0.471,2.356-0.813,3.523c-0.342,1.168-0.431,2.502,0.461,3.463c0.509,0.547,1.284,0.91,1.76,1.476
					c1.189,1.416-0.077,3.448-1.926,4.286c-2.725,1.235-6.388,0.636-8.646-1.106c-2.258-1.742-3.182-4.417-2.874-6.923
					C243.147,329.436,248.657,326.465,244.496,322.122z"/>
			</g>
		</g>
		<g>
			<g>
				<polygon style="fill:#747477;" points="108.374,362.027 127.791,355.807 105.749,353.897 86.045,360.083 				"/>
				<polygon style="fill:#D1D3D4;" points="157.728,253.285 169.401,331.87 53.811,312.564 38.768,238.447 				"/>
				<polygon style="fill:#B3BABC;" points="125.231,279.581 130.946,318.051 74.36,308.6 67.391,270.587 				"/>
				<polygon style="fill:#ACAEAF;" points="86.045,292.539 86.045,360.083 108.374,362.027 108.374,295.036 				"/>
				<polygon style="fill:#909091;" points="108.374,295.036 86.045,292.539 86.045,294.248 106.198,296.545 106.198,361.837 
					106.198,361.837 108.374,362.027 				"/>
				<polygon style="fill:#909091;" points="125.231,279.581 67.391,270.587 67.801,272.822 123.458,281.727 128.72,317.679 
					130.946,318.051 				"/>
				<polygon style="fill:#909091;" points="157.728,253.285 38.768,238.447 39.503,242.069 155.952,255.235 167.166,331.496 
					169.401,331.87 				"/>
				<g>
					<polygon style="fill:#909091;" points="84.241,258.861 82.795,258.716 81.653,249.54 83.099,249.685 					"/>
					<polygon style="fill:#909091;" points="87.071,259.146 85.625,259 84.483,249.824 85.929,249.97 					"/>
					<polygon style="fill:#909091;" points="89.901,259.43 88.455,259.285 87.313,250.109 88.759,250.254 					"/>
					<polygon style="fill:#909091;" points="92.731,259.715 91.285,259.569 90.143,250.393 91.589,250.539 					"/>
					<polygon style="fill:#909091;" points="95.562,259.999 94.116,259.853 92.973,250.678 94.419,250.823 					"/>
					<polygon style="fill:#909091;" points="98.392,260.283 96.946,260.138 95.803,250.962 97.249,251.107 					"/>
					<polygon style="fill:#909091;" points="101.222,260.568 99.776,260.422 98.633,251.247 100.079,251.392 					"/>
					<polygon style="fill:#909091;" points="104.052,260.852 102.606,260.707 101.464,251.531 102.91,251.676 					"/>
					<polygon style="fill:#909091;" points="106.882,261.137 105.436,260.991 104.293,251.815 105.74,251.961 					"/>
					<polygon style="fill:#909091;" points="109.712,261.421 108.266,261.276 107.124,252.1 108.57,252.245 					"/>
					<polygon style="fill:#909091;" points="112.542,261.705 111.096,261.56 109.954,252.384 111.4,252.53 					"/>
				</g>
			</g>
			<g>
				<g>
					<path style="fill:#FF9494;" d="M371.61,341.083c-0.216-0.069-0.442-0.102-0.668-0.102h-4.004v-4.408
						c0-0.356-0.194-0.678-0.512-0.838c-1.145-0.577-4.495-1.751-12.777-1.751c-8.45,0-11.765,1.222-12.844,1.785
						c-0.273,0.142-0.445,0.417-0.445,0.724v31.076c0,0,3.579,2.226,12.477,2.226c8.897,0,14.101-2.226,14.101-2.226v-2.784h4.786
						c0.402,0,0.796-0.109,1.142-0.315c0.669-0.402,4.011-2.864,4.011-11.881C376.877,343.023,372.15,341.253,371.61,341.083z
						 M370.827,360.35h-3.889v-14.933h3.431c0.57,0.459,2.073,2.141,2.073,7.173C372.441,357.475,371.335,359.615,370.827,360.35z"
						/>
					<path style="fill:#350707;" d="M365.63,336.676c0,1.063-5.364,1.925-11.981,1.925c-6.617,0-11.981-0.862-11.981-1.925
						c0-1.064,5.364-1.926,11.981-1.926C360.266,334.75,365.63,335.612,365.63,336.676z"/>
				</g>
				<path style="fill:none;stroke:#FFFFFF;stroke-linecap:round;stroke-linejoin:round;stroke-miterlimit:10;" d="M347.077,337.701
					c0,0-1.74-0.333-1.893,3.793c-0.153,4.126,0,9.321,0,9.321"/>
				<path style="fill:#262262;" d="M345.116,350.953l-1.449,1.923c0,0-0.196,3.625-0.159,3.625c0.037,0,4.115,0.086,4.115,0.086
					l0.135-3.539L345.116,350.953z"/>
				<path style="fill:#FFFFFF;" d="M356.8,320.63c0.733-1.21,1.801-2.173,2.72-3.249c3.802-4.449,4.867-11.063,2.653-16.48
					c1.982,2.034,3.608,4.495,4.255,7.261c0.647,2.766,0.219,5.856-1.521,8.101c-1.213,1.565-2.955,2.625-4.348,4.032
					c-2.95,2.98-3.703,7.011-3.178,11.026C354.726,329.708,355.453,322.854,356.8,320.63z"/>
				<path style="fill:#FFFFFF;" d="M347.307,320.63c0.733-1.21,1.801-2.173,2.72-3.249c3.802-4.449,4.867-11.063,2.653-16.48
					c1.982,2.034,3.609,4.495,4.255,7.261c0.647,2.766,0.219,5.856-1.521,8.101c-1.213,1.565-2.955,2.625-4.348,4.032
					c-2.95,2.98-3.703,7.011-3.177,11.026C345.233,329.708,345.96,322.854,347.307,320.63z"/>
			</g>
			<g>
				<path style="fill:#39B54A;" d="M142.82,354.641c-0.608-2.833-1.032-5.93,0.282-8.512c1.314-2.582,5.06-4.055,7.216-2.119
					c1.076,0.966,1.47,2.461,2.232,3.69c0.761,1.229,2.352,2.259,3.598,1.526c0.027-8.098-0.145-16.196-0.516-24.286
					c-0.19-4.14-0.354-8.591,1.891-12.074c2.245-3.483,7.936-4.957,10.489-1.693c0.879,1.124,1.221,2.567,1.477,3.971
					c2.834,15.567-2.234,31.533-9.199,45.74c-0.551,1.125-1.128,2.262-2.001,3.161c-2.216,2.282-8.327,3.333-11.196,1.687
					C144.119,364.025,143.514,357.875,142.82,354.641z"/>
				
					<path style="fill:none;stroke:#FFFFFF;stroke-width:0.2835;stroke-linecap:round;stroke-linejoin:round;stroke-miterlimit:10;" d="
					M165.06,309.45c0,0,8.318,32.755-12.246,56.271"/>
				
					<path style="fill:none;stroke:#FFFFFF;stroke-width:0.2835;stroke-linecap:round;stroke-linejoin:round;stroke-miterlimit:10;" d="
					M162.901,309.45c0,0,4.772,37.31-12.939,56.271"/>
				
					<path style="fill:none;stroke:#FFFFFF;stroke-width:0.2835;stroke-linecap:round;stroke-linejoin:round;stroke-miterlimit:10;" d="
					M148.57,365.721c-6.958-13.016-3.189-21.9-3.189-21.9s3.471,9.741,3.583,20.494"/>
				
					<path style="fill:none;stroke:#FFFFFF;stroke-width:0.2835;stroke-linecap:round;stroke-linejoin:round;stroke-miterlimit:10;" d="
					M146.466,343.821c0,0,8.311,5.636,3.496,20.494"/>
				
					<path style="fill:none;stroke:#FFFFFF;stroke-width:0.2835;stroke-linecap:round;stroke-linejoin:round;stroke-miterlimit:10;" d="
					M159.759,310.667c0,0,4.131,28.094-6.945,48.841"/>
				
					<path style="fill:none;stroke:#FFFFFF;stroke-width:0.2835;stroke-linecap:round;stroke-linejoin:round;stroke-miterlimit:10;" d="
					M157.523,312.865c0,0,1.376,18.719,0,27.54"/>
				<polygon style="fill:#CE791D;" points="142.239,365.721 146.419,385.063 159.703,385.063 164.004,366.533 				"/>
				<path style="fill:#F7941D;" d="M165.997,368.819h-26.365c-0.313,0-0.569-0.256-0.569-0.569v-5.056
					c0-0.313,0.256-0.569,0.569-0.569h26.365c0.313,0,0.569,0.256,0.569,0.569v5.056
					C166.566,368.563,166.31,368.819,165.997,368.819z"/>
			</g>
			<g>
				<polygon style="fill:#F95B5E;" points="394.17,346.046 394.17,349.035 418.014,372.573 475.652,371.664 475.652,366.94 				"/>
				<polygon style="fill:#F1F2F2;" points="394.17,346.046 440.841,346.046 475.652,366.94 418.408,368.48 				"/>
				
					<path style="fill:none;stroke:#383838;stroke-width:0.5669;stroke-linecap:round;stroke-linejoin:round;stroke-miterlimit:10;" d="
					M396.433,347.411c0.528-1.004-0.314-2.358-1.433-2.538c-1.12-0.18-2.242,0.614-2.689,1.656c-0.447,1.042-0.32,2.255,0.071,3.32
					c0.422,1.15,1.361,2.306,2.585,2.257c1.484-0.06,2.283-1.767,2.543-3.23c0.099-0.555,0.111-1.247-0.368-1.545
					c-0.704-0.438-1.491,0.463-1.737,1.254c-0.368,1.181-0.455,2.495,0.03,3.632c0.486,1.137,1.632,2.037,2.867,1.984
					c1.728-0.074,2.952-2.287,2.096-3.79c-0.273-0.33-0.823-0.29-1.163-0.029c-0.34,0.261-0.522,0.674-0.687,1.069
					c-0.372,0.889-0.735,1.808-0.757,2.771c-0.021,0.963,0.369,1.993,1.2,2.48c0.563,0.331,1.255,0.374,1.902,0.278
					c1.64-0.244,3.207-1.574,3.235-3.232c0.009-0.522-0.203-1.123-0.702-1.279c-0.463-0.145-0.945,0.161-1.286,0.506
					c-1.106,1.117-1.551,2.892-0.96,4.348c0.591,1.457,2.259,2.438,3.796,2.106c1.537-0.331,2.671-2.045,2.249-3.559
					c-1.09-0.262-2.157,0.606-2.681,1.598c-0.634,1.201-0.746,2.707-0.133,3.919c0.614,1.212,2.002,2.035,3.344,1.83
					c1.342-0.206,2.46-1.541,2.277-2.887c-0.043-0.315-0.155-0.63-0.372-0.861c-0.535-0.569-1.54-0.416-2.096,0.131
					c-0.556,0.547-0.761,1.355-0.871,2.128c-0.231,1.626-0.058,3.491,1.174,4.577c0.945,0.832,2.42,0.997,3.524,0.393
					c1.105-0.604,1.762-1.934,1.572-3.179c-0.035-0.231-0.11-0.477-0.303-0.61c-0.253-0.174-0.599-0.082-0.873,0.057
					c-1.332,0.674-2.021,2.402-1.519,3.808c0.502,1.406,2.129,2.306,3.587,1.984c1.458-0.322,2.555-1.823,2.419-3.31
					c-0.645-0.548-1.715-0.2-2.197,0.495c-0.482,0.695-0.528,1.596-0.515,2.442c0.019,1.268,0.221,2.705,1.258,3.436
					c1.461,1.03,3.679-0.238,4.102-1.975c0.118-0.486,0.131-1.023-0.104-1.464c-0.236-0.441-0.77-0.746-1.249-0.599
					c-0.306,0.094-0.536,0.345-0.723,0.604c-0.956,1.323-1.145,3.161-0.479,4.651"/>
				
					<path style="fill:none;stroke:#BCBEC0;stroke-width:0.2835;stroke-linecap:round;stroke-linejoin:round;stroke-miterlimit:10;" d="
					M463.34,363.422c-0.634-0.584-1.647-0.456-2.438-0.113c-0.791,0.343-1.524,0.866-2.377,0.986
					c-0.815,0.114-1.627-0.154-2.431-0.328c-1.531-0.331-3.113-0.322-4.679-0.312c-2.835,0.019-5.669,0.038-8.502,0.129
					c-1.68,0.054-3.36,0.134-5.038,0.239c-1.085,0.068-2.17,0.147-3.254,0.225c-3.191,0.232-6.383,0.463-9.574,0.695"/>
				
					<path style="fill:none;stroke:#BCBEC0;stroke-width:0.2835;stroke-linecap:round;stroke-linejoin:round;stroke-miterlimit:10;" d="
					M459.953,360.73c-0.757-0.379-1.549-0.761-2.395-0.771c-0.846-0.01-1.761,0.467-1.971,1.287
					c-0.623-0.934-1.854-1.415-2.945-1.151c-0.444,0.108-0.856,0.323-1.299,0.433c-0.649,0.161-1.33,0.086-1.996,0.024
					c-1.545-0.146-3.097-0.222-4.649-0.23c-1.715-0.008-3.445,0.07-5.107,0.493c-0.874,0.222-1.784,0.541-2.656,0.309
					c-0.352-0.094-0.675-0.273-1.021-0.386c-0.8-0.26-1.667-0.152-2.499-0.031c-1.565,0.228-3.124,0.49-4.677,0.787"/>
				
					<path style="fill:none;stroke:#BCBEC0;stroke-width:0.2835;stroke-linecap:round;stroke-linejoin:round;stroke-miterlimit:10;" d="
					M454.469,358.085c-1.26-0.266-2.52-0.531-3.781-0.796c-0.474-0.1-0.965-0.2-1.437-0.095c-0.382,0.085-0.725,0.299-1.105,0.39
					c-1.069,0.257-2.127-0.487-3.226-0.512c-0.624-0.014-1.227,0.205-1.84,0.325c-0.849,0.166-1.722,0.142-2.586,0.117
					c-1.205-0.034-2.411-0.069-3.616-0.103c-0.392-0.011-0.793-0.021-1.164,0.102c-0.251,0.083-0.479,0.224-0.722,0.33
					c-0.759,0.33-1.669,0.289-2.394-0.108c-0.172-0.094-0.346-0.21-0.542-0.206c-0.315,0.007-0.527,0.309-0.734,0.546
					c-0.207,0.238-0.576,0.442-0.816,0.238"/>
				
					<path style="fill:none;stroke:#BCBEC0;stroke-width:0.2835;stroke-linecap:round;stroke-linejoin:round;stroke-miterlimit:10;" d="
					M450.252,355.481c-2.741,0.048-5.486,0.096-8.221-0.097c-1.112-0.079-2.23-0.198-3.338-0.073
					c-1.541,0.173-2.995,0.809-4.526,1.063c-1.158,0.192-2.352,0.162-3.499-0.09c-0.741-0.162-1.467-0.417-2.224-0.462
					c-0.937-0.057-1.866,0.21-2.804,0.208c-0.839-0.001-1.688-0.216-2.508-0.041c-0.57,0.121-1.086,0.424-1.651,0.569
					c-1.144,0.294-2.409-0.073-3.507,0.362"/>
				
					<path style="fill:none;stroke:#BCBEC0;stroke-width:0.2835;stroke-linecap:round;stroke-linejoin:round;stroke-miterlimit:10;" d="
					M446.228,352.715c-1.358,0.293-2.643-0.775-4.03-0.859c-1.289-0.077-2.462,0.696-3.719,0.988
					c-1.2,0.279-2.452,0.114-3.683,0.141c-1.068,0.023-2.13,0.193-3.198,0.178c-1.837-0.025-3.741-0.581-5.466,0.05"/>
				
					<path style="fill:none;stroke:#BCBEC0;stroke-width:0.2835;stroke-linecap:round;stroke-linejoin:round;stroke-miterlimit:10;" d="
					M443.296,350.437c-3.236,0.116-6.493-1.172-9.66-0.496c-1.299,0.277-2.51,0.874-3.801,1.188
					c-3.199,0.776-6.553-0.248-9.84-0.055c-1.201,0.07-2.407,0.304-3.6,0.145c-0.652-0.087-1.335-0.286-1.947-0.045
					c-0.585,0.231-1.104,0.852-1.704,0.667c-0.447-0.137-0.831-0.706-1.247-0.491"/>
			</g>
		</g>
	</g>
</g>
<g id="Designed_by_freepik">
	<g>
		<g id="XMLID_1_">
			<g id="XMLID_20_">
				<path id="XMLID_28_" style="fill:#112129;" d="M260.104,466.12c-0.432,0.443-0.803,0.931-1.108,1.453l-0.465-0.241
					c-0.067-0.298-0.349-0.503-0.659-0.466c-0.331,0.039-0.568,0.339-0.529,0.67c0.039,0.331,0.339,0.568,0.67,0.529
					c0.066-0.008,0.127-0.026,0.184-0.052l0.451,0.234c-0.251,0.554-0.433,1.139-0.539,1.744l0.747,0.132
					c0.23-1.306,0.85-2.507,1.792-3.473L260.104,466.12z"/>
				<path id="XMLID_27_" style="fill:#112129;" d="M265.592,463.818c-0.171,0-0.341,0.006-0.51,0.017l-0.074-0.626
					c0.188-0.149,0.296-0.389,0.266-0.645c-0.046-0.393-0.402-0.674-0.795-0.628c-0.393,0.046-0.674,0.402-0.628,0.795
					c0.03,0.254,0.189,0.461,0.404,0.564l0.074,0.624c-0.714,0.116-1.403,0.332-2.06,0.646l0.327,0.684
					c0.934-0.447,1.942-0.673,2.995-0.673c0.496,0,0.993,0.053,1.475,0.158l0.161-0.741
					C266.692,463.877,266.142,463.818,265.592,463.818z"/>
				<path id="XMLID_26_" style="fill:#112129;" d="M272.194,466.366c0.331-0.04,0.566-0.342,0.526-0.672
					c-0.04-0.331-0.341-0.566-0.672-0.526c-0.309,0.038-0.535,0.304-0.53,0.609l-0.416,0.363c-0.418-0.43-0.889-0.813-1.408-1.139
					l-0.404,0.641c1.134,0.715,2.021,1.726,2.563,2.925l0.69-0.313c-0.251-0.554-0.567-1.072-0.942-1.545l0.402-0.351
					C272.065,466.37,272.129,466.374,272.194,466.366z"/>
				<path id="XMLID_25_" style="fill:#112129;" d="M265.044,474.027c-0.386,0.023-0.775,0.035-1.157,0.035
					c-0.88,0-1.733-0.061-2.478-0.179c-0.39-0.062-0.846-0.155-1.27-0.292c1.046,1.861,3.069,3.125,5.388,3.125
					c2.855,0,5.262-1.916,5.95-4.504c-0.682,0.449-1.505,0.825-2.459,1.123C267.839,473.702,266.463,473.941,265.044,474.027z"/>
				<path id="XMLID_21_" style="fill:#112129;" d="M265.592,465.334c-3.352,0-6.08,2.666-6.08,5.943
					c0,0.426,0.046,0.849,0.137,1.261c0.673,0.483,2.706,0.89,5.348,0.731c2.879-0.173,5.297-0.957,6.672-2.159
					c-0.006-0.195-0.021-0.39-0.045-0.582C271.244,467.568,268.65,465.334,265.592,465.334z M263.432,471.849
					c-1.02,0-1.85-0.83-1.85-1.85c0-1.02,0.83-1.85,1.85-1.85c1.02,0,1.85,0.83,1.85,1.85
					C265.282,471.02,264.452,471.849,263.432,471.849z M268.17,470.941c-0.75,0-1.36-0.61-1.36-1.36c0-0.75,0.61-1.361,1.36-1.361
					c0.75,0,1.361,0.61,1.361,1.361C269.53,470.331,268.92,470.941,268.17,470.941z"/>
			</g>
			<path id="XMLID_18_" style="fill:#112129;" d="M281.595,467.202c-0.295-0.116-0.805-0.309-1.382-0.237
				c-0.551,0.069-0.844,0.341-0.844,1.007v0.866h2.228v1.717h-2.228v5.455h-1.932v-5.455h-1.34v-1.717h1.34v-0.888
				c0-1.68,0.896-2.783,2.568-2.783c0.643,0,1.157,0.122,1.59,0.308L281.595,467.202z"/>
			<path id="XMLID_16_" style="fill:#112129;" d="M286.298,470.534c-0.177-0.03-0.358-0.046-0.526-0.046
				c-0.896,0-1.51,0.548-1.51,1.613v3.908h-1.932v-7.172h1.873v0.785c0.451-0.673,1.14-0.977,2.021-0.977
				c0.414,0,0.848,0.128,1.094,0.337L286.298,470.534z"/>
			<path id="XMLID_13_" style="fill:#112129;" d="M293.965,472.412c0,0.222-0.015,0.489-0.037,0.651h-5.085
				c0.207,1.036,0.933,1.488,1.843,1.488c0.622,0,1.295-0.252,1.813-0.688l1.133,1.243c-0.814,0.748-1.85,1.088-3.057,1.088
				c-2.198,0-3.723-1.495-3.723-3.753c0-2.258,1.48-3.797,3.627-3.797C292.544,468.644,293.958,470.177,293.965,472.412z
				 M288.851,471.746h3.175c-0.177-0.918-0.733-1.436-1.562-1.436C289.554,470.31,289.021,470.858,288.851,471.746z"/>
			<path id="XMLID_10_" style="fill:#112129;" d="M301.618,472.412c0,0.222-0.015,0.489-0.037,0.651h-5.085
				c0.207,1.036,0.933,1.488,1.843,1.488c0.622,0,1.295-0.252,1.814-0.688l1.132,1.243c-0.814,0.748-1.85,1.088-3.057,1.088
				c-2.198,0-3.723-1.495-3.723-3.753c0-2.258,1.48-3.797,3.627-3.797C300.197,468.644,301.611,470.177,301.618,472.412z
				 M296.504,471.746h3.175c-0.178-0.918-0.733-1.436-1.562-1.436C297.207,470.31,296.674,470.858,296.504,471.746z"/>
			<path id="XMLID_7_" style="fill:#112129;" d="M309.964,472.419c0,2.154-1.495,3.775-3.471,3.775
				c-0.962,0-1.643-0.378-2.109-0.933v3.708h-1.924v-10.133h1.887v0.792c0.466-0.585,1.155-0.984,2.139-0.984
				C308.469,468.644,309.964,470.265,309.964,472.419z M304.287,472.419c0,1.132,0.748,1.976,1.843,1.976
				c1.14,0,1.85-0.881,1.85-1.976c0-1.095-0.71-1.976-1.85-1.976C305.035,470.443,304.287,471.287,304.287,472.419z"/>
			<path id="XMLID_4_" style="fill:#112129;" d="M313.068,466.491c0,0.696-0.54,1.229-1.236,1.229c-0.696,0-1.229-0.533-1.229-1.229
				c0-0.696,0.533-1.243,1.229-1.243C312.527,465.247,313.068,465.795,313.068,466.491z M312.809,476.009h-1.932v-7.172h1.932
				V476.009z"/>
			<path id="XMLID_2_" style="fill:#112129;" d="M316.032,471.39l2.701-2.554h2.368l-3.479,3.375l3.501,3.797h-2.376l-2.716-2.901
				v2.901H314.1v-10.658h1.932V471.39z"/>
		</g>
		<g>
			<path style="fill:#112129;" d="M184.412,475.944v-1.055c-0.527,0.718-1.391,1.23-2.387,1.23c-1.846,0-3.149-1.406-3.149-3.706
				c0-2.256,1.289-3.721,3.149-3.721c0.952,0,1.816,0.469,2.387,1.245v-3.765h1.099v9.77H184.412z M184.412,474.025v-3.208
				c-0.395-0.615-1.245-1.143-2.124-1.143c-1.421,0-2.27,1.172-2.27,2.739c0,1.567,0.85,2.724,2.27,2.724
				C183.168,475.138,184.017,474.64,184.412,474.025z"/>
			<path style="fill:#112129;" d="M186.932,472.399c0-2.051,1.465-3.706,3.486-3.706c2.139,0,3.398,1.67,3.398,3.794v0.279h-5.727
				c0.088,1.333,1.025,2.446,2.549,2.446c0.805,0,1.626-0.322,2.182-0.893l0.527,0.718c-0.703,0.703-1.655,1.084-2.812,1.084
				C188.44,476.12,186.932,474.611,186.932,472.399z M190.403,469.602c-1.509,0-2.256,1.274-2.314,2.358h4.643
				C192.718,470.905,192.015,469.602,190.403,469.602z"/>
			<path style="fill:#112129;" d="M194.607,475.006l0.571-0.791c0.469,0.542,1.362,1.011,2.329,1.011c1.084,0,1.67-0.513,1.67-1.216
				c0-1.714-4.38-0.659-4.38-3.281c0-1.098,0.952-2.036,2.636-2.036c1.201,0,2.051,0.454,2.622,1.025l-0.513,0.762
				c-0.424-0.513-1.201-0.894-2.109-0.894c-0.967,0-1.567,0.483-1.567,1.113c0,1.552,4.38,0.527,4.38,3.281
				c0,1.187-0.952,2.138-2.783,2.138C196.306,476.12,195.325,475.768,194.607,475.006z"/>
			<path style="fill:#112129;" d="M201.477,467.126c0-0.41,0.337-0.747,0.732-0.747c0.41,0,0.747,0.337,0.747,0.747
				c0,0.41-0.337,0.732-0.747,0.732C201.814,467.858,201.477,467.536,201.477,467.126z M201.667,475.944v-7.075h1.099v7.075H201.667
				z"/>
			<path style="fill:#112129;" d="M204.582,477.76l0.556-0.82c0.586,0.703,1.289,0.967,2.3,0.967c1.172,0,2.27-0.571,2.27-2.124
				v-1.011c-0.513,0.718-1.377,1.26-2.373,1.26c-1.845,0-3.149-1.377-3.149-3.662c0-2.27,1.289-3.676,3.149-3.676
				c0.952,0,1.802,0.469,2.373,1.245v-1.069h1.098v6.87c0,2.344-1.641,3.076-3.369,3.076
				C206.237,478.815,205.417,478.58,204.582,477.76z M209.709,473.908v-3.091c-0.381-0.615-1.23-1.143-2.109-1.143
				c-1.421,0-2.27,1.128-2.27,2.695c0,1.553,0.849,2.695,2.27,2.695C208.478,475.065,209.328,474.523,209.709,473.908z"/>
			<path style="fill:#112129;" d="M217.413,475.944v-4.629c0-1.245-0.63-1.641-1.582-1.641c-0.865,0-1.685,0.527-2.095,1.099v5.17
				h-1.099v-7.075h1.099v1.025c0.498-0.586,1.464-1.201,2.519-1.201c1.48,0,2.256,0.747,2.256,2.285v4.966H217.413z"/>
			<path style="fill:#112129;" d="M219.932,472.399c0-2.051,1.465-3.706,3.486-3.706c2.139,0,3.398,1.67,3.398,3.794v0.279h-5.727
				c0.088,1.333,1.025,2.446,2.549,2.446c0.806,0,1.626-0.322,2.183-0.893l0.527,0.718c-0.703,0.703-1.655,1.084-2.812,1.084
				C221.441,476.12,219.932,474.611,219.932,472.399z M223.404,469.602c-1.509,0-2.256,1.274-2.314,2.358h4.643
				C225.718,470.905,225.015,469.602,223.404,469.602z"/>
			<path style="fill:#112129;" d="M233.35,475.944v-1.055c-0.527,0.718-1.392,1.23-2.388,1.23c-1.846,0-3.149-1.406-3.149-3.706
				c0-2.256,1.289-3.721,3.149-3.721c0.952,0,1.817,0.469,2.388,1.245v-3.765h1.098v9.77H233.35z M233.35,474.025v-3.208
				c-0.396-0.615-1.245-1.143-2.124-1.143c-1.421,0-2.27,1.172-2.27,2.739c0,1.567,0.849,2.724,2.27,2.724
				C232.105,475.138,232.954,474.64,233.35,474.025z"/>
			<path style="fill:#112129;" d="M239.692,475.944v-9.77h1.098v3.765c0.572-0.776,1.421-1.245,2.388-1.245
				c1.845,0,3.149,1.465,3.149,3.721c0,2.299-1.304,3.706-3.149,3.706c-0.996,0-1.86-0.513-2.388-1.23v1.055H239.692z
				 M242.9,475.138c1.436,0,2.285-1.157,2.285-2.724c0-1.568-0.85-2.739-2.285-2.739c-0.864,0-1.728,0.527-2.109,1.143v3.208
				C241.171,474.64,242.036,475.138,242.9,475.138z"/>
			<path style="fill:#112129;" d="M247.528,477.716c0.161,0.073,0.425,0.117,0.601,0.117c0.483,0,0.805-0.161,1.055-0.747
				l0.469-1.069l-2.959-7.148h1.187l2.358,5.801l2.344-5.801h1.201l-3.545,8.51c-0.425,1.025-1.143,1.421-2.08,1.435
				c-0.234,0-0.601-0.044-0.805-0.103L247.528,477.716z"/>
		</g>
	</g>
</g>
</svg>
