<?xml version="1.0" standalone="no"?>
<!DOCTYPE svg PUBLIC "-//W3C//DTD SVG 20010904//EN"
 "http://www.w3.org/TR/2001/REC-SVG-20010904/DTD/svg10.dtd">
<svg version="1.0" xmlns="http://www.w3.org/2000/svg"
 width="800.000000pt" height="800.000000pt" viewBox="0 0 800.000000 800.000000"
 preserveAspectRatio="xMidYMid meet">

<g transform="translate(0.000000,800.000000) scale(0.100000,-0.100000)"
fill="#000000" stroke="none">
<path d="M0 4000 l0 -4000 4000 0 4000 0 -1 1748 c-1 961 -4 1734 -6 1717 -14
-100 -64 -369 -77 -415 -9 -30 -28 -104 -42 -165 -15 -60 -32 -117 -39 -125
-7 -8 -16 -31 -20 -50 -12 -56 -44 -147 -75 -216 -31 -66 -47 -76 -88 -55 -9
5 -44 17 -77 26 -84 25 -150 53 -222 97 -35 21 -63 35 -63 33 0 -8 -52 27 -85
57 -16 15 -33 28 -38 28 -10 0 -81 79 -89 101 -5 12 -13 17 -25 13 -17 -5 -17
-5 0 6 17 11 16 14 -17 48 -20 19 -36 42 -36 50 0 8 -17 33 -37 56 -21 23 -49
57 -63 75 -14 19 -32 41 -40 49 -8 9 -19 23 -25 33 -5 9 -34 45 -64 80 -29 35
-61 73 -71 85 -9 11 -20 33 -24 47 -4 16 -13 27 -24 27 -15 1 -100 104 -111
134 -8 25 -33 82 -42 96 -17 29 -57 118 -69 156 -7 22 -16 46 -21 54 -34 62
-50 103 -45 115 5 14 -38 125 -49 125 -4 0 -3 -5 0 -10 3 -6 10 -33 14 -61 7
-45 7 -49 -7 -35 -8 8 -16 23 -17 34 -1 19 -16 61 -42 120 -9 21 -11 38 -5 48
6 12 2 30 -15 60 -14 24 -21 48 -18 54 4 6 2 17 -5 25 -6 7 -16 42 -22 77 -5
35 -13 83 -18 108 -4 25 -11 63 -15 85 -3 22 -10 56 -15 75 -5 19 -16 85 -25
145 -17 116 -20 133 -59 340 -14 72 -32 168 -40 215 -18 94 -33 162 -46 200
-5 14 -11 46 -14 72 -9 85 -93 358 -152 495 -8 17 -14 37 -14 45 0 8 -4 18 -8
24 -5 5 -21 43 -37 84 -16 41 -32 79 -37 84 -4 6 -8 16 -8 23 0 7 -13 41 -28
75 -36 79 -53 127 -57 157 -2 13 -15 35 -28 50 -30 31 -66 102 -60 117 2 6 -3
17 -12 24 -8 7 -15 23 -15 35 0 12 -7 29 -17 36 -9 8 -22 28 -30 44 -16 36
-35 68 -45 75 -17 13 -58 82 -53 90 3 5 -5 16 -19 25 -14 9 -43 40 -65 69 -42
56 -64 120 -121 346 -18 69 -45 177 -61 240 -16 63 -29 121 -29 129 0 17 94 7
126 -14 11 -7 40 -18 62 -24 23 -6 60 -16 82 -21 26 -7 38 -15 34 -22 -4 -7
-3 -8 5 -4 10 7 74 -10 96 -25 6 -4 39 -18 75 -32 36 -14 88 -37 116 -51 29
-14 59 -26 67 -26 8 0 25 -8 38 -18 13 -10 56 -33 94 -51 39 -19 89 -46 113
-62 23 -16 54 -32 67 -35 14 -3 25 -10 25 -15 0 -5 6 -9 13 -9 7 0 22 -8 33
-18 10 -9 55 -40 99 -67 44 -27 82 -53 83 -57 2 -4 9 -8 16 -8 7 0 28 -13 46
-30 18 -16 36 -30 39 -30 3 0 23 -15 43 -33 21 -17 52 -43 69 -57 17 -14 37
-30 43 -35 6 -6 22 -18 36 -28 45 -30 142 -120 270 -248 147 -148 173 -177
265 -295 38 -49 77 -98 87 -108 10 -11 20 -27 23 -37 3 -9 12 -19 19 -22 8 -3
31 -34 52 -69 21 -35 40 -65 44 -68 13 -11 120 -189 120 -199 0 -6 4 -11 8
-11 5 0 17 -18 27 -40 10 -22 21 -40 25 -40 5 0 11 -11 14 -24 3 -13 24 -56
46 -95 22 -39 40 -73 40 -77 0 -3 18 -43 39 -87 22 -45 45 -100 52 -122 6 -22
18 -49 25 -60 7 -11 27 -65 44 -120 17 -55 37 -111 44 -125 7 -14 21 -56 30
-95 35 -140 58 -231 67 -255 4 -14 10 -43 13 -65 3 -22 12 -80 21 -130 9 -49
20 -110 25 -135 4 -25 8 741 9 1703 l1 1747 -1917 0 -1918 0 35 -30 c46 -39
29 -39 -20 0 l-38 30 -2071 0 -2071 0 0 -4000z m4251 3913 c13 -16 12 -17 -3
-4 -10 7 -18 15 -18 17 0 8 8 3 21 -13z m-626 -53 c-11 -5 -27 -9 -35 -9 -13
-1 -13 0 0 9 8 5 24 9 35 9 l20 0 -20 -9z m-262 -120 c-6 -21 -20 -25 -42 -11
-11 7 -10 11 5 20 29 16 43 13 37 -9z m892 10 c3 -5 1 -10 -4 -10 -6 0 -11 5
-11 10 0 6 2 10 4 10 3 0 8 -4 11 -10z m-960 -30 c8 -13 -73 -63 -91 -56 -23
9 -16 20 29 43 49 25 54 26 62 13z m-129 -86 c-13 -9 -15 -14 -6 -14 31 0 -4
-14 -38 -16 -30 -1 -47 -11 -89 -52 -32 -30 -48 -52 -40 -55 6 -2 9 -8 5 -12
-4 -4 -14 -2 -22 4 -12 10 -21 6 -48 -18 -18 -17 -27 -31 -20 -31 7 0 15 7 18
15 4 8 17 15 30 15 21 0 23 -2 12 -19 -7 -11 -21 -25 -33 -31 -12 -6 -34 -27
-49 -47 -37 -45 -7 -31 49 24 22 22 67 55 100 73 33 18 77 44 98 57 20 13 37
20 37 16 -1 -16 -77 -91 -96 -95 -10 -2 -19 -12 -19 -22 0 -10 -11 -26 -25
-37 -44 -34 -50 -40 -50 -51 0 -7 5 -6 15 2 8 7 15 9 15 4 0 -5 5 -1 11 9 5 9
15 17 20 17 11 0 77 50 121 93 16 15 35 27 43 27 7 0 20 3 29 6 23 9 19 -7 -9
-38 -16 -18 -31 -25 -41 -21 -12 4 -15 2 -12 -8 3 -8 17 -14 31 -14 35 1 34
-8 0 -25 -23 -11 -25 -14 -10 -18 13 -3 2 -13 -40 -39 -32 -19 -66 -44 -77
-55 -10 -11 -41 -34 -69 -51 -28 -17 -45 -33 -38 -35 8 -3 17 2 22 9 4 7 11
11 14 7 4 -3 -15 -22 -42 -42 -58 -44 -128 -106 -129 -115 0 -11 -130 -138
-152 -150 -12 -6 -21 -15 -20 -19 4 -12 -20 -48 -54 -84 -18 -18 -51 -61 -73
-96 -22 -34 -46 -62 -53 -62 -7 0 -18 -13 -23 -29 -6 -16 -17 -32 -25 -35 -8
-3 -14 -12 -14 -21 0 -9 -10 -29 -22 -45 -17 -24 -19 -32 -9 -44 7 -8 10 -20
6 -26 -4 -6 1 -18 11 -25 18 -14 17 -16 -16 -19 -22 -2 -100 -148 -100 -187 0
-20 -15 -52 -38 -81 -8 -9 -11 -22 -6 -29 5 -8 3 -10 -5 -4 -7 4 -24 2 -37 -5
-18 -10 -21 -16 -12 -27 19 -24 4 -21 -20 3 -19 20 -20 25 -8 30 12 5 13 10 3
26 -9 16 -9 22 1 25 6 3 12 12 12 22 0 9 7 27 16 39 13 19 13 22 0 22 -13 0
-29 -16 -64 -66 -12 -17 -12 -17 -7 6 4 14 7 48 8 75 2 54 10 72 39 93 10 7
18 18 18 24 0 18 33 83 47 91 7 4 13 12 13 17 0 5 12 21 26 35 25 25 28 45 7
52 -6 2 -18 -15 -27 -38 -11 -28 -21 -39 -31 -35 -8 3 -17 1 -20 -4 -10 -16
-25 -11 -25 8 0 25 11 34 25 22 9 -7 16 2 25 33 8 23 18 48 24 55 5 8 11 31
12 52 1 21 10 49 19 63 9 14 17 30 16 34 0 21 90 182 139 247 130 172 234 297
334 399 42 43 76 82 76 88 0 5 8 9 19 9 10 0 24 7 31 15 17 20 170 121 198
129 12 4 22 11 22 16 0 12 43 18 55 7 6 -5 3 -14 -9 -23z m1187 -3 c15 -8 27
-20 27 -28 0 -7 6 -13 14 -13 14 0 31 -29 22 -38 -10 -9 -81 35 -91 56 -5 12
-18 22 -27 22 -10 0 -18 5 -18 11 0 6 7 9 15 5 8 -3 15 0 15 7 0 7 3 8 8 2 4
-6 19 -16 35 -24z m-1253 -51 c0 -5 -4 -10 -10 -10 -5 0 -10 5 -10 10 0 6 5
10 10 10 6 0 10 -4 10 -10z m180 -70 c-18 -11 -22 -7 -14 14 5 13 10 14 18 6
8 -8 7 -13 -4 -20z m194 6 c-6 -16 -34 -29 -43 -20 -6 6 27 34 41 34 4 0 5 -6
2 -14z m26 -10 c0 -3 -4 -8 -10 -11 -5 -3 -10 -1 -10 4 0 6 5 11 10 11 6 0 10
-2 10 -4z m-86 -24 c6 -9 -23 -26 -61 -37 -18 -5 -22 -3 -17 9 3 9 14 16 24
16 11 0 22 5 25 10 8 12 22 13 29 2z m-151 -47 c-3 -9 -8 -14 -10 -11 -3 3 -2
9 2 15 9 16 15 13 8 -4z m-5 -56 c-7 -5 -19 -9 -27 -9 -11 0 -11 3 -1 14 6 8
18 12 27 9 12 -5 12 -7 1 -14z m-608 -92 c0 -1 -24 -25 -52 -52 l-53 -50 50
53 c46 48 55 57 55 49z m1020 -232 c6 3 10 -3 10 -15 0 -17 4 -20 18 -15 9 4
25 10 35 12 9 3 17 9 17 14 0 17 29 9 57 -15 30 -26 25 -48 -7 -28 -27 16 -30
15 -30 -8 0 -16 7 -20 33 -22 42 -2 47 -3 77 -15 14 -6 54 -18 90 -26 54 -12
69 -13 90 -2 20 10 30 11 48 1 26 -14 19 -26 -14 -26 -13 0 -26 -4 -29 -10
-12 -19 57 -10 86 11 36 25 37 37 2 41 -14 2 -28 8 -30 14 -5 15 43 24 56 11
6 -6 19 -4 38 5 29 14 77 16 104 4 12 -5 18 -1 22 14 4 16 12 21 34 20 15 -1
33 -1 38 0 21 5 60 -2 73 -12 7 -6 16 -8 20 -4 4 4 -4 16 -17 27 -22 18 -22
19 -3 19 11 0 34 -16 51 -35 34 -40 46 -44 38 -15 -8 30 21 25 35 -5 6 -14 15
-25 20 -25 4 0 7 -5 5 -12 -1 -7 14 -15 38 -18 23 -3 57 -18 76 -33 20 -15 41
-27 47 -27 7 0 14 -11 18 -24 3 -14 12 -27 21 -30 8 -3 11 -10 8 -16 -3 -5 -2
-10 3 -10 5 0 22 -13 38 -28 17 -16 38 -31 47 -35 10 -4 24 -22 32 -40 8 -19
21 -40 30 -47 9 -7 23 -26 31 -41 8 -15 25 -40 39 -55 14 -15 28 -38 31 -51 4
-13 10 -23 14 -23 5 0 11 -14 15 -31 11 -50 41 -92 81 -114 26 -14 43 -34 60
-72 13 -28 24 -57 24 -63 0 -7 6 -26 14 -43 13 -31 45 -203 51 -282 2 -22 11
-74 20 -115 21 -100 22 -574 1 -596 -8 -7 -16 -10 -20 -7 -3 4 -6 -1 -6 -10 0
-20 -7 -21 -66 -6 -24 6 -44 16 -44 22 0 6 -9 30 -20 53 -17 34 -33 48 -89 77
-47 24 -90 38 -133 43 -39 4 -85 18 -120 36 -32 16 -64 31 -73 32 -9 1 -15 5
-15 9 0 4 0 12 0 17 0 6 11 10 24 10 33 0 57 10 50 21 -3 5 -3 9 -1 9 3 0 49
10 103 22 59 12 126 20 167 19 37 -1 67 0 67 2 0 8 -74 41 -84 39 -5 -2 -4 3
2 10 17 21 -1 38 -39 37 -19 -1 -72 2 -119 6 -67 6 -95 4 -133 -9 -26 -9 -61
-16 -78 -16 -29 0 -147 -34 -179 -51 -8 -4 -35 -18 -60 -30 -51 -25 -99 -67
-100 -87 0 -7 -4 -10 -10 -7 -16 10 -12 -22 5 -39 8 -8 15 -22 15 -31 0 -12 6
-15 20 -10 23 7 60 -2 60 -15 0 -5 -15 -13 -34 -20 -20 -6 -36 -19 -39 -31 -3
-12 -11 -19 -18 -17 -17 6 -49 -22 -49 -43 0 -9 -7 -22 -15 -29 -8 -7 -15 -18
-15 -26 0 -21 -39 -37 -76 -31 -19 3 -34 2 -34 -3 0 -4 -20 -10 -45 -12 -25
-2 -45 1 -45 5 0 5 -5 5 -10 2 -20 -13 -104 -7 -115 7 -16 22 -104 50 -91 29
4 -5 -3 -7 -14 -4 -11 3 -20 9 -20 14 0 5 -9 9 -19 9 -28 0 -52 11 -45 21 3 5
1 9 -5 9 -6 0 -8 7 -4 16 4 10 0 20 -10 26 -10 5 -17 16 -17 24 0 8 -4 13 -9
10 -5 -4 -29 12 -53 34 -23 21 -51 46 -61 55 -11 10 -26 13 -43 9 -26 -7 -26
-6 -8 14 13 15 21 18 30 11 9 -7 19 -7 34 1 11 6 39 12 61 13 l41 1 -6 41 c-5
31 -18 51 -61 92 -31 29 -67 55 -83 58 -15 3 -47 12 -72 19 -25 8 -83 22 -130
31 -47 9 -91 22 -97 27 -7 6 -24 7 -37 4 -15 -3 -26 -1 -28 6 -7 20 -100 38
-193 37 -49 -1 -98 2 -107 6 -13 5 -18 2 -18 -9 0 -9 6 -16 14 -16 8 0 18 -5
22 -11 5 -9 -1 -10 -22 -5 -16 4 -40 8 -54 10 -14 1 -31 4 -37 4 -7 1 -13 9
-13 17 0 21 -18 19 -23 -2 -3 -16 -5 -16 -12 2 -5 11 -13 23 -17 26 -12 8 1
81 13 73 5 -3 9 2 9 10 0 17 -16 30 -23 19 -2 -5 -2 -1 1 7 3 8 6 29 7 45 1
17 5 46 9 65 12 57 12 119 1 124 -5 2 -2 5 8 5 14 1 16 8 13 36 -3 19 0 35 5
35 5 0 12 12 15 28 4 15 11 33 17 40 11 14 14 62 5 78 -8 14 3 84 13 78 5 -3
9 8 9 25 0 16 4 31 8 33 4 2 23 24 42 51 18 26 38 47 43 47 5 0 6 7 3 16 -8
20 7 47 63 113 65 77 101 112 142 141 20 14 56 48 79 75 24 28 49 54 56 58 8
4 14 15 14 22 0 10 10 15 29 15 17 0 32 4 35 9 4 5 24 12 46 16 22 4 42 11 45
15 3 5 12 7 20 4 8 -4 13 -10 10 -14 -6 -10 14 -25 21 -17 3 3 0 14 -7 25 -19
31 4 54 46 46 25 -4 34 -2 40 13 6 16 8 16 16 -5 5 -13 13 -20 19 -17z m63 10
c4 -9 -1 -11 -14 -8 -10 3 -19 11 -19 19 0 16 26 8 33 -11z m-370 -55 c-3 -12
-8 -19 -11 -16 -5 6 5 36 12 36 2 0 2 -9 -1 -20z m581 4 c9 -3 14 -10 11 -14
-6 -10 -45 -1 -45 11 0 10 12 11 34 3z m-2894 -314 c0 -5 -2 -10 -4 -10 -3 0
-8 5 -11 10 -3 6 -1 10 4 10 6 0 11 -4 11 -10z m1460 -80 c0 -5 -4 -10 -10
-10 -5 0 -10 5 -10 10 0 6 5 10 10 10 6 0 10 -4 10 -10z m-1555 -20 c3 -5 1
-10 -4 -10 -6 0 -11 5 -11 10 0 6 2 10 4 10 3 0 8 -4 11 -10z m-15 -30 c0 -5
-5 -10 -11 -10 -5 0 -7 5 -4 10 3 6 8 10 11 10 2 0 4 -4 4 -10z m1790 -60 c0
-5 -5 -10 -11 -10 -5 0 -7 5 -4 10 3 6 8 10 11 10 2 0 4 -4 4 -10z m-9 -37 c2
-40 -3 -81 -17 -130 -40 -144 -39 -273 5 -783 10 -105 31 -179 70 -246 12 -19
21 -39 21 -44 0 -10 -87 -30 -130 -30 -21 0 -28 4 -24 14 3 8 -3 31 -14 53
-22 43 -38 98 -54 182 -12 67 -18 459 -8 481 4 8 13 64 20 125 8 78 18 124 35
157 13 27 20 48 15 48 -17 0 -11 26 11 46 11 10 18 26 16 36 -3 11 2 22 14 28
22 12 26 32 4 24 -12 -5 -13 -1 -4 25 12 33 38 42 40 14z m-321 -163 c0 -5 -4
-10 -10 -10 -5 0 -10 5 -10 10 0 6 5 10 10 10 6 0 10 -4 10 -10z m-150 -256
c0 -2 -7 -4 -15 -4 -8 0 -15 4 -15 10 0 5 7 7 15 4 8 -4 15 -8 15 -10z m-83
-36 c-3 -8 -6 -5 -6 6 -1 11 2 17 5 13 3 -3 4 -12 1 -19z m-100 -290 c-3 -8
-6 -5 -6 6 -1 11 2 17 5 13 3 -3 4 -12 1 -19z m1133 -173 c19 -7 54 -16 78
-20 23 -4 42 -11 42 -17 0 -5 10 -8 23 -6 13 2 21 -2 20 -9 -2 -7 4 -10 12 -7
18 7 20 -7 4 -23 -9 -9 -3 -11 22 -11 60 1 69 -2 63 -15 -3 -8 -18 -14 -34
-14 -16 0 -27 4 -24 9 8 12 -47 6 -76 -9 -14 -7 -31 -13 -37 -13 -7 0 -13 -7
-13 -15 0 -17 -12 -19 -26 -5 -15 15 -74 1 -67 -16 7 -18 -11 -18 -26 0 -14
17 -59 27 -67 15 -3 -5 0 -9 5 -9 6 0 11 -7 11 -16 0 -12 -6 -15 -22 -10 -13
3 -26 6 -30 6 -4 0 -4 8 -1 18 6 14 4 15 -9 4 -12 -10 -18 -10 -23 -1 -5 7
-24 9 -56 5 -40 -5 -48 -4 -43 8 3 7 -3 20 -13 28 -33 24 -58 88 -34 88 4 0 6
11 4 24 -4 21 -2 23 20 19 14 -3 33 0 44 6 23 14 205 4 253 -14z m-1189 -68
c-8 -8 -11 -7 -11 4 0 20 13 34 18 19 3 -7 -1 -17 -7 -23z m484 -129 c4 -40 9
-85 10 -100 2 -16 -2 -28 -9 -29 -6 0 -26 -2 -43 -5 l-33 -4 0 58 c0 31 -3 68
-7 81 -5 18 -3 22 6 16 10 -5 11 -2 6 14 -3 11 -2 21 3 21 5 0 13 15 16 33 l7
32 18 -22 c12 -14 21 -48 26 -95z m1005 76 c0 -8 -4 -12 -10 -9 -5 3 -10 10
-10 16 0 5 5 9 10 9 6 0 10 -7 10 -16z m50 -20 c0 -8 -4 -12 -10 -9 -5 3 -10
10 -10 16 0 5 5 9 10 9 6 0 10 -7 10 -16z m985 -74 c-3 -5 -11 -10 -16 -10 -6
0 -7 5 -4 10 3 6 11 10 16 10 6 0 7 -4 4 -10z m631 -127 c-7 -7 -26 7 -26 19
0 6 6 6 15 -2 9 -7 13 -15 11 -17z m-2248 -5 c-42 -9 -48 -13 -48 -35 0 -13 4
-33 10 -43 8 -14 4 -25 -16 -50 -33 -39 -25 -49 16 -20 17 12 37 19 45 16 16
-6 21 -36 6 -36 -18 0 -21 -36 -7 -66 9 -16 28 -43 45 -61 16 -17 27 -34 25
-36 -2 -2 7 -10 21 -17 30 -16 32 -30 5 -30 l-20 0 20 -20 c11 -11 26 -20 34
-20 7 0 33 -18 57 -40 24 -22 52 -40 62 -40 11 0 15 -4 11 -11 -5 -9 3 -10 29
-5 20 4 38 2 42 -3 4 -7 19 -4 41 8 24 13 47 17 74 14 28 -4 40 -2 40 7 0 6 6
10 13 7 6 -2 24 -1 39 4 21 6 26 4 21 -7 -3 -9 -12 -13 -19 -10 -8 3 -14 1
-14 -4 0 -6 -11 -10 -25 -10 -16 0 -25 -6 -25 -15 0 -8 5 -15 11 -15 5 0 7 5
4 10 -3 6 -2 10 4 10 5 0 12 -6 15 -12 3 -10 8 -9 18 3 9 11 28 16 58 15 29
-1 44 3 43 10 -2 8 10 11 32 9 39 -4 119 41 110 63 -3 7 0 10 6 6 13 -7 79 54
79 73 0 7 4 13 10 13 18 0 31 41 35 110 4 57 2 70 -10 70 -8 0 -15 5 -15 10 0
15 -35 47 -60 55 -12 4 -19 9 -17 11 9 9 74 -24 110 -56 29 -25 37 -39 37 -66
0 -75 -73 -202 -159 -276 -89 -76 -391 -111 -626 -73 -136 22 -261 61 -321
101 -93 62 -159 188 -159 306 0 77 7 86 88 114 57 19 187 42 237 42 32 0 31
-1 -12 -10z m459 -142 c12 -39 1 -66 -28 -66 -15 0 -18 5 -14 25 3 14 7 36 10
50 7 35 20 31 32 -9z m1691 14 c29 -14 42 -27 42 -41 0 -22 -87 -112 -95 -98
-3 4 -17 4 -31 -1 -36 -14 -39 7 -10 62 13 25 22 49 19 51 -9 9 8 47 21 47 7
0 31 -9 54 -20z m264 -15 c98 -28 166 -68 174 -101 22 -86 -70 -252 -176 -319
-46 -29 -198 -66 -280 -68 -76 -1 -288 10 -342 19 -21 3 -38 9 -38 14 0 4 -18
8 -40 8 -80 1 -174 50 -224 115 -38 51 -76 146 -83 209 -5 49 -3 62 13 79 23
25 73 53 82 45 3 -3 0 -6 -6 -6 -6 0 -24 -12 -41 -26 -28 -23 -31 -31 -31 -82
1 -36 8 -70 20 -92 10 -19 24 -45 29 -57 6 -13 16 -23 22 -23 6 0 9 -6 6 -13
-3 -7 4 -24 15 -38 17 -21 18 -21 9 -2 -17 33 -13 38 9 13 18 -21 22 -29 19
-46 -1 -8 22 -24 35 -24 5 0 3 7 -4 15 -7 8 -8 15 -2 15 5 0 15 -7 22 -15 9
-11 9 -15 1 -15 -7 0 -9 -4 -6 -10 3 -5 11 -10 16 -10 6 0 7 5 3 12 -5 8 -2 9
11 4 32 -12 -2 20 -40 39 -47 22 -44 35 9 35 35 0 54 -7 88 -33 50 -38 112
-59 166 -56 20 2 47 -3 58 -9 12 -6 24 -9 27 -5 4 3 14 0 23 -7 13 -12 17 -11
24 0 7 11 14 12 34 2 17 -7 26 -8 26 -1 0 5 -8 13 -17 16 -23 9 -43 35 -35 47
3 5 -1 7 -9 4 -8 -3 -19 0 -26 7 -9 10 -8 17 8 31 14 13 16 19 7 25 -9 6 -5
14 14 28 14 11 29 32 32 46 4 14 12 25 20 25 7 0 19 7 26 15 7 8 16 12 21 9 9
-5 91 29 118 50 7 6 25 12 39 14 62 8 108 57 77 82 -7 6 -16 22 -19 35 -3 13
-14 26 -24 29 -9 2 1 2 23 -1 22 -3 75 -16 117 -28z m-867 15 c-27 -12 -43
-12 -25 0 8 5 22 9 30 9 10 0 8 -3 -5 -9z m-2026 -43 c6 -12 20 -33 31 -47 20
-25 20 -30 8 -160 -6 -74 -12 -191 -12 -259 -1 -86 -5 -126 -13 -128 -7 -3
-11 7 -11 25 1 16 -2 35 -6 41 -5 7 -10 31 -12 54 -3 23 -12 69 -21 102 -17
63 -25 353 -11 387 9 22 32 14 47 -15z m605 -13 c5 -14 4 -15 -9 -4 -17 14
-19 20 -6 20 5 0 12 -7 15 -16z m1646 -14 c0 -5 -4 -10 -10 -10 -5 0 -10 5
-10 10 0 6 5 10 10 10 6 0 10 -4 10 -10z m-570 -95 c7 -9 22 -14 32 -13 22 3
54 -50 89 -149 13 -39 37 -80 63 -108 42 -46 152 -119 166 -110 5 3 11 -1 14
-7 3 -7 3 -2 0 10 -5 21 -4 23 15 13 14 -8 21 -8 21 -1 0 5 8 10 18 10 15 0
15 2 2 11 -13 9 -13 10 0 6 22 -6 25 -37 3 -38 -16 0 -16 -1 2 -8 11 -5 27 -3
37 2 15 10 15 12 0 24 -15 12 -14 13 8 8 14 -3 59 -12 100 -21 257 -53 599
-11 707 88 21 20 21 20 29 -4 4 -12 7 -90 7 -173 0 -124 -4 -173 -27 -284 -15
-74 -30 -139 -33 -144 -9 -14 -34 -126 -79 -350 -18 -93 -54 -198 -76 -221
-10 -11 -18 -30 -18 -43 0 -12 -18 -52 -40 -88 -22 -36 -40 -70 -40 -75 0 -6
-6 -10 -14 -10 -13 0 -23 -13 -24 -33 0 -5 -9 -16 -20 -25 -19 -17 -36 -51
-34 -64 1 -5 -5 -8 -13 -8 -8 0 -15 -5 -15 -11 0 -5 -4 -7 -10 -4 -6 3 -10 -5
-10 -18 0 -18 -7 -27 -25 -31 -14 -4 -25 -13 -25 -20 0 -10 -7 -12 -22 -8 -17
4 -20 2 -15 -11 4 -10 2 -17 -3 -17 -6 0 -10 -6 -10 -13 0 -9 -11 -13 -29 -12
-22 1 -28 -2 -23 -13 4 -12 0 -14 -21 -8 -14 3 -29 2 -32 -4 -3 -5 -17 -10
-30 -10 -15 0 -26 -7 -30 -21 -5 -15 -13 -19 -28 -15 -25 6 -48 -10 -41 -29 3
-7 -7 -23 -23 -35 -15 -12 -28 -25 -28 -29 0 -10 -56 -61 -66 -61 -5 0 -9 -6
-9 -14 0 -8 -16 -31 -35 -52 -19 -20 -35 -41 -35 -45 0 -5 -7 -9 -15 -9 -9 0
-27 -11 -41 -25 -14 -14 -32 -25 -40 -25 -8 0 -13 -4 -9 -9 3 -5 -7 -9 -23 -9
-15 1 -37 -4 -47 -10 -33 -17 -115 -26 -115 -12 0 7 -6 10 -14 7 -8 -3 -17 1
-20 9 -4 10 -13 13 -26 9 -11 -3 -20 -2 -20 3 0 5 -10 7 -23 5 -14 -3 -29 3
-40 15 -16 17 -23 19 -55 10 -37 -10 -104 -5 -180 14 -48 12 -78 53 -68 93 8
32 -24 86 -46 79 -9 -2 -19 0 -23 6 -3 5 -10 10 -14 10 -14 0 -61 -75 -61 -98
0 -17 -6 -22 -25 -22 -18 0 -25 -5 -25 -19 0 -27 -47 -63 -69 -52 -9 5 -22 6
-29 4 -28 -10 -103 85 -121 153 -6 22 -17 48 -25 59 -9 12 -12 31 -9 49 5 25
4 28 -16 21 -21 -6 -30 12 -14 29 4 3 8 14 9 23 11 74 32 95 85 86 35 -5 37
-4 43 31 6 33 20 47 28 29 2 -5 17 -16 33 -25 27 -15 53 -50 84 -113 5 -11 10
-14 10 -7 1 6 9 12 19 13 13 0 13 2 -4 9 -28 11 -40 30 -20 30 9 0 16 5 16 10
0 6 -4 10 -10 10 -20 0 -9 18 15 24 18 5 25 13 25 31 0 16 6 25 15 25 8 0 15
-7 15 -16 0 -10 4 -12 13 -7 6 4 19 6 28 5 9 -2 19 5 22 15 2 10 8 26 12 35 5
12 1 17 -16 20 -26 4 -38 28 -14 28 11 0 15 6 10 19 -7 24 13 31 45 15 l24
-13 -23 -9 c-19 -7 -21 -10 -9 -15 10 -3 25 4 39 19 24 26 52 30 94 14 14 -5
24 -6 21 -1 -8 12 116 11 131 -1 19 -16 129 1 190 28 17 8 40 14 52 14 12 0
21 5 21 10 0 6 7 10 15 10 19 0 55 20 75 42 9 9 35 26 58 38 23 12 42 25 42
29 0 4 12 14 28 22 24 12 45 29 107 89 25 25 52 25 77 3 18 -16 22 -16 46 -2
16 9 32 30 40 54 7 22 16 42 21 45 30 20 31 108 2 131 -12 10 -21 21 -21 26
-1 4 -18 20 -40 35 l-39 27 2 -76 c2 -74 1 -76 -27 -92 -23 -13 -43 -15 -110
-9 -198 19 -242 19 -341 3 -111 -18 -214 -24 -222 -12 -2 4 -31 7 -63 7 -32 0
-61 4 -64 9 -9 14 -123 26 -218 22 -60 -2 -88 0 -88 8 0 6 -7 11 -16 11 -11 0
-14 6 -8 22 6 21 8 46 5 91 -1 10 -9 17 -20 17 -10 0 -24 7 -31 15 -7 8 -19
15 -26 15 -8 0 -14 3 -14 8 0 4 -13 16 -29 27 -16 10 -28 22 -26 25 2 3 0 12
-5 19 -11 19 -32 3 -25 -20 5 -15 1 -19 -15 -19 -16 0 -20 -4 -16 -16 5 -12 2
-15 -9 -10 -11 4 -19 -3 -25 -20 -17 -43 -35 -23 -35 39 0 31 -5 61 -11 67 -7
7 -31 7 -72 2 -35 -5 -65 -5 -70 0 -5 5 -22 10 -38 12 -16 2 -32 4 -35 5 -4 0
-9 11 -12 23 -4 12 -9 19 -13 15 -8 -7 -64 20 -79 38 -5 7 -32 15 -58 18 -54
5 -95 37 -147 114 -57 83 -72 159 -71 338 2 181 11 277 26 282 6 2 29 -13 50
-32 68 -61 139 -92 290 -126 95 -21 333 -40 413 -33 98 9 196 26 248 43 43 15
54 16 54 5 0 -7 -6 -11 -14 -8 -10 4 -14 0 -12 -13 5 -31 52 -24 94 14 92 84
122 114 122 123 0 16 40 82 76 127 34 41 45 46 120 51 12 1 27 -5 34 -13z
m-970 -135 c-8 -5 -19 -10 -25 -10 -5 0 -3 5 5 10 8 5 20 10 25 10 6 0 3 -5
-5 -10z m390 -46 c0 -14 -3 -14 -15 -4 -8 7 -15 14 -15 16 0 2 7 4 15 4 8 0
15 -7 15 -16z m-7 -31 c-7 -2 -19 -2 -25 0 -7 3 -2 5 12 5 14 0 19 -2 13 -5z
m-944 -672 c41 -80 145 -244 174 -273 13 -13 37 -46 52 -73 16 -28 33 -52 37
-53 5 -2 19 -25 33 -50 13 -26 37 -61 53 -78 55 -57 62 -82 67 -239 2 -85 0
-145 -6 -145 -5 0 -9 5 -9 10 0 6 -9 10 -20 10 -11 0 -20 5 -20 10 0 16 -27
12 -34 -5 -8 -22 -26 -18 -26 5 0 11 5 20 10 20 6 0 10 9 10 20 0 11 -4 20
-10 20 -5 0 -7 -6 -4 -14 9 -23 -9 -26 -35 -5 -13 10 -20 19 -16 19 4 0 1 7
-6 17 -11 13 -11 17 -1 20 6 3 12 9 12 15 0 7 -5 6 -14 -1 -20 -17 -71 59 -62
94 5 20 -1 39 -24 76 -16 27 -30 57 -30 67 0 10 -4 22 -8 28 -5 5 -14 29 -21
54 -13 45 -33 102 -54 150 -6 14 -11 30 -13 35 -14 57 -37 147 -45 175 -9 29
-21 84 -29 125 -9 44 7 30 39 -34z m-412 -143 c-3 -7 -5 -2 -5 12 0 14 2 19 5
13 2 -7 2 -19 0 -25z m1030 10 c-3 -8 -6 -5 -6 6 -1 11 2 17 5 13 3 -3 4 -12
1 -19z m-887 -228 c0 -5 -7 -10 -15 -10 -8 0 -15 5 -15 10 0 6 7 10 15 10 8 0
15 -4 15 -10z m0 -46 c0 -2 -9 -4 -20 -4 -11 0 -20 4 -20 9 0 5 9 7 20 4 11
-3 20 -7 20 -9z m-10 -90 c0 -8 -4 -12 -10 -9 -5 3 -10 13 -10 21 0 8 5 12 10
9 6 -3 10 -13 10 -21z m-156 -94 c-7 -6 -24 22 -23 40 0 9 6 5 14 -10 7 -14
11 -27 9 -30z m163 -122 c-2 -13 -4 -5 -4 17 -1 22 1 32 4 23 2 -10 2 -28 0
-40z m83 -20 c0 -16 -3 -19 -11 -11 -6 6 -8 16 -5 22 11 17 16 13 16 -11z
m-215 -88 c3 -5 1 -10 -4 -10 -6 0 -11 5 -11 10 0 6 2 10 4 10 3 0 8 -4 11
-10z m1 -52 c0 -18 4 -54 8 -80 7 -43 6 -47 -11 -45 -15 1 -19 7 -16 26 4 25
3 24 -11 -4 -20 -41 -21 -6 -1 42 8 19 15 48 15 64 0 16 4 29 8 29 5 0 8 -15
8 -32z m1411 -30 c-3 -8 -6 -5 -6 6 -1 11 2 17 5 13 3 -3 4 -12 1 -19z m-644
-41 c-8 -13 -23 3 -23 26 0 20 0 20 14 2 8 -11 12 -23 9 -28z m577 -27 c0 -5
-5 -10 -11 -10 -5 0 -7 5 -4 10 3 6 8 10 11 10 2 0 4 -4 4 -10z m-459 -13 c-1
-12 -15 -9 -19 4 -3 6 1 10 8 8 6 -3 11 -8 11 -12z m-885 -105 c-3 -43 -10
-91 -17 -107 -7 -17 -15 -50 -19 -75 -5 -25 -17 -91 -29 -148 -12 -57 -18
-108 -15 -113 3 -6 1 -31 -4 -57 -6 -26 -16 -80 -23 -120 -7 -40 -17 -76 -22
-79 -10 -6 -8 11 9 107 l6 35 -16 -28 c-9 -16 -20 -46 -26 -68 -12 -43 -27
-50 -38 -18 -8 20 -10 19 -38 -15 -54 -65 -74 -94 -74 -105 0 -7 -8 -23 -17
-37 -9 -14 -24 -40 -33 -57 -18 -34 -40 -47 -36 -23 1 8 9 23 17 33 26 31 50
74 47 83 -2 5 -23 -15 -48 -44 -25 -29 -62 -64 -82 -79 -21 -15 -38 -33 -38
-41 0 -16 -27 -29 -41 -20 -5 3 -9 1 -9 -4 0 -5 -11 -12 -24 -14 -17 -4 -23
-1 -19 9 8 20 -9 16 -46 -11 -19 -14 -40 -22 -49 -19 -10 4 -13 2 -8 -5 4 -7
1 -12 -7 -12 -8 0 -34 -13 -58 -30 -24 -16 -53 -30 -64 -30 -19 -1 -19 -1 -2
-11 24 -14 13 -27 -36 -39 -55 -15 -97 -33 -97 -42 0 -5 -10 -8 -22 -8 -22 1
-22 1 5 18 15 9 27 20 27 24 0 9 -76 -19 -105 -39 -11 -7 -27 -13 -37 -13 -10
0 -18 -4 -18 -9 0 -5 -18 -12 -40 -16 -22 -4 -42 -11 -46 -16 -3 -5 -15 -9
-28 -9 -12 0 -31 -6 -42 -14 -17 -13 -14 -14 39 -14 41 0 57 4 57 14 0 8 9 14
20 14 11 0 20 4 20 9 0 5 19 12 43 16 23 4 46 10 52 13 5 4 22 5 38 3 15 -1
43 7 62 19 19 12 35 18 35 15 0 -4 7 -2 15 5 8 6 19 9 25 5 5 -3 10 -1 10 4 0
6 4 11 10 11 12 0 86 50 74 50 -10 1 57 39 69 40 4 0 7 -4 7 -10 0 -5 -6 -10
-14 -10 -8 0 -16 -7 -18 -16 -3 -15 -67 -57 -138 -90 -19 -10 -29 -19 -22 -21
7 -3 18 0 25 6 12 9 65 13 168 11 42 0 50 4 99 50 29 27 60 50 69 50 12 -1 9
-7 -11 -25 -16 -13 -24 -26 -19 -29 4 -3 19 6 31 19 13 14 27 25 32 25 14 0
-55 -55 -85 -68 -15 -7 -26 -16 -23 -21 7 -11 -57 -43 -64 -32 -3 4 -20 11
-38 14 -27 6 -30 4 -20 -7 7 -8 17 -13 22 -13 5 1 10 -3 12 -9 3 -5 -26 -24
-63 -42 -51 -24 -60 -31 -35 -27 17 2 32 1 32 -4 0 -10 -25 -22 -55 -27 -11
-1 -58 -10 -105 -19 -47 -9 -121 -20 -165 -25 -261 -29 -271 -31 -259 -53 4
-7 -5 0 -20 15 -14 15 -26 30 -26 34 0 4 -7 16 -17 26 -13 14 -13 18 -2 19 8
0 3 5 -10 10 -24 9 -24 10 -5 28 10 10 24 17 29 15 6 -2 23 0 39 4 36 10 48
33 14 25 -19 -4 -20 -3 -8 7 34 25 94 52 97 43 6 -17 173 40 173 59 0 4 8 8
18 9 9 0 12 3 5 5 -6 3 -30 -4 -52 -15 -22 -12 -48 -21 -58 -21 -10 0 34 30
97 66 63 37 120 72 125 78 6 7 39 26 75 43 69 34 110 64 110 82 0 6 4 11 9 11
5 0 37 29 72 65 34 36 67 65 72 65 5 0 4 -7 -3 -15 -9 -10 -9 -15 -1 -15 11 0
15 13 12 36 -1 6 11 20 26 29 l28 18 -20 -23 c-23 -27 -3 -18 33 13 26 24 30
46 5 26 -16 -13 -17 -12 -4 3 7 10 17 16 21 13 4 -3 11 5 14 18 6 21 7 21 17
4 8 -14 7 -23 -5 -36 -9 -10 -16 -21 -16 -24 0 -17 24 -4 63 32 69 64 107 93
107 83 0 -5 -7 -15 -15 -22 -8 -7 -15 -20 -15 -29 0 -9 -5 -22 -12 -29 -7 -7
-9 -12 -5 -12 4 0 -1 -10 -13 -22 -23 -25 -40 -17 -19 8 12 15 12 17 0 13 -8
-3 -21 -16 -30 -29 -12 -18 -13 -22 -2 -16 11 7 13 4 9 -12 -8 -29 6 -28 26 2
8 14 25 27 36 31 11 4 36 30 55 58 19 29 35 48 35 44 0 -5 5 -5 11 -2 6 5 5
11 -5 18 -13 10 -14 16 -3 37 7 14 22 29 35 35 12 5 22 14 22 18 0 5 8 16 19
25 10 10 31 58 45 107 15 50 34 106 41 125 8 19 19 55 26 80 6 25 19 61 29 80
9 19 21 58 26 85 4 28 9 55 10 60 1 6 2 13 3 18 0 4 3 7 6 7 3 0 4 -35 1 -78z
m-60 2 c-3 -9 -6 -25 -6 -35 0 -11 -4 -18 -8 -15 -12 7 -2 66 10 66 6 0 7 -7
4 -16z m-40 -181 c-10 -26 -18 -8 -9 23 5 21 8 24 11 11 2 -10 1 -25 -2 -34z
m396 -65 c-7 -7 -12 -8 -12 -2 0 14 12 26 19 19 2 -3 -1 -11 -7 -17z m126 -44
c4 -33 -11 -24 -23 15 -5 17 -4 22 6 19 8 -3 15 -18 17 -34z m-449 -50 c-10
-23 -13 -25 -16 -11 -3 10 1 25 8 33 17 21 21 11 8 -22z m-145 -49 c-4 -8 -11
-15 -16 -15 -6 0 -5 6 2 15 7 8 14 15 16 15 2 0 1 -7 -2 -15z m716 -66 c0 -6
-4 -7 -10 -4 -5 3 -10 11 -10 16 0 6 5 7 10 4 6 -3 10 -11 10 -16z m-264 -54
c8 -19 -19 -98 -34 -103 -14 -4 -5 55 11 75 5 7 7 20 3 28 -3 8 -1 15 5 15 5
0 12 -7 15 -15z m-636 -49 c0 -2 -8 -10 -17 -17 -16 -13 -17 -12 -4 4 13 16
21 21 21 13z m502 -88 c-8 -8 -9 -4 -5 13 4 13 8 18 11 10 2 -7 -1 -18 -6 -23z
m-2 -46 c0 -5 -7 -17 -16 -28 -8 -10 -14 -14 -11 -9 2 6 7 18 10 28 7 17 17
23 17 9z m-320 -21 c0 -6 -4 -13 -10 -16 -5 -3 -10 -15 -10 -25 0 -10 -5 -22
-12 -26 -7 -5 -9 -2 -5 9 4 11 2 14 -8 11 -7 -3 -16 -16 -19 -30 -4 -13 -11
-24 -16 -24 -16 0 -12 14 16 64 17 30 32 46 45 46 10 0 19 -4 19 -9z m157 -23
c-3 -8 -6 -5 -6 6 -1 11 2 17 5 13 3 -3 4 -12 1 -19z m274 -55 c-8 -15 -10
-15 -11 -2 0 17 10 32 18 25 2 -3 -1 -13 -7 -23z m-197 -38 c-4 -8 -11 -15
-16 -15 -6 0 -5 6 2 15 7 8 14 15 16 15 2 0 1 -7 -2 -15z m56 -15 c0 -5 -4
-10 -10 -10 -5 0 -10 5 -10 10 0 6 5 10 10 10 6 0 10 -4 10 -10z m-438 -89
c-16 -28 -31 -48 -35 -45 -8 8 1 31 31 79 36 57 39 27 4 -34z m392 -27 c-21
-38 -43 -76 -49 -84 -23 -30 -67 -113 -56 -106 6 4 11 3 11 -2 0 -5 -8 -12
-19 -15 -10 -2 -31 -30 -47 -61 -22 -43 -33 -56 -51 -56 -30 0 -47 -30 -26
-46 9 -6 13 -16 9 -23 -9 -15 -28 -4 -20 12 3 7 0 5 -8 -4 -7 -9 -20 -18 -27
-21 -12 -3 -12 -6 2 -11 9 -3 17 -2 17 4 0 6 4 8 10 4 12 -7 -29 -55 -47 -55
-8 0 -12 -4 -8 -10 3 -5 13 -6 23 -3 9 3 -14 -27 -53 -67 -38 -40 -78 -81 -87
-91 -10 -11 -26 -19 -36 -19 -27 0 -33 -9 -19 -31 9 -14 8 -22 -5 -36 -8 -10
-19 -28 -22 -40 -8 -26 -36 -52 -36 -33 0 7 -9 3 -22 -9 -13 -11 -37 -33 -54
-48 -17 -16 -43 -45 -58 -65 -16 -21 -35 -38 -42 -38 -8 0 -14 -7 -14 -16 0
-10 -6 -14 -15 -10 -20 7 -45 -3 -45 -19 0 -7 -7 -16 -16 -19 -10 -4 -13 -2
-8 7 9 13 -26 -12 -38 -28 -5 -6 -8 -5 -8 2 0 7 -5 12 -12 10 -6 -1 -14 7 -16
18 -4 17 -2 18 12 6 9 -7 16 -9 16 -3 0 5 16 17 35 26 19 9 37 21 40 26 3 6
11 10 16 10 6 0 7 -5 3 -11 -5 -8 -1 -8 14 0 27 14 42 37 19 28 -10 -3 -17 -5
-17 -3 0 2 34 36 75 77 41 41 75 78 75 83 0 6 -13 -3 -28 -18 -26 -24 -30 -25
-42 -11 -19 22 -37 18 -44 -10 -4 -14 -14 -29 -23 -32 -27 -11 -63 -57 -57
-75 9 -31 -95 -83 -112 -56 -3 4 6 12 19 17 23 9 34 41 14 41 -17 0 -58 -51
-51 -63 4 -7 -1 -5 -10 4 -21 19 -11 49 16 49 10 0 17 4 13 10 -7 11 -33 3
-58 -18 -16 -14 -19 -14 -32 4 -13 17 -12 21 5 36 11 9 20 19 20 22 0 8 -34
-6 -42 -18 -9 -13 -22 -1 -14 13 3 5 30 17 59 27 28 9 63 24 77 33 14 9 43 23
65 30 22 8 58 28 79 45 22 16 54 38 72 48 18 9 43 27 56 40 12 13 36 33 52 46
16 12 26 26 22 30 -4 4 -12 -1 -17 -11 -6 -9 -15 -17 -21 -17 -6 0 -3 9 7 20
10 12 25 18 32 16 16 -7 27 11 11 18 -9 3 -8 8 5 16 20 13 23 34 3 27 -11 -4
-13 3 -11 29 4 39 2 40 -24 17 -11 -10 -27 -24 -36 -32 -12 -9 -14 -16 -6 -24
18 -18 12 -31 -30 -61 -29 -20 -44 -25 -51 -18 -8 8 -5 14 13 21 13 5 18 10
11 10 -10 1 -10 6 -2 21 6 11 9 24 6 29 -3 4 8 21 24 36 34 33 38 45 13 45
-15 0 -14 2 3 15 15 11 16 14 4 15 -9 0 -20 -4 -25 -9 -6 -6 -15 -4 -24 6 -11
12 -11 14 0 12 23 -5 101 41 106 62 3 10 9 19 14 19 4 0 13 9 19 20 6 11 9 20
7 20 -2 0 -14 -9 -27 -20 -33 -29 -44 -25 -24 9 9 16 22 27 29 25 6 -3 24 7
41 21 16 14 35 25 42 25 7 0 10 5 6 11 -4 7 2 9 17 7 17 -2 27 4 34 20 5 12
13 22 17 22 5 0 8 5 8 10 0 14 39 52 51 48 13 -4 -62 -101 -90 -114 -35 -18
-49 -34 -28 -34 9 0 17 -7 17 -16 0 -9 3 -14 8 -12 4 2 27 13 52 25 25 12 65
40 90 62 25 23 49 40 54 38 5 -2 30 17 54 42 24 25 41 39 36 31 -12 -24 -95
-142 -132 -188 -49 -62 -33 -62 21 0 26 29 60 67 76 83 28 28 73 90 82 111 18
44 85 134 96 130 7 -3 13 0 13 6 0 6 2 9 5 6 3 -3 -11 -37 -31 -74z m-174 -5
c-7 -11 -14 -18 -17 -15 -8 8 5 36 17 36 7 0 7 -6 0 -21z m72 -41 c-7 -7 -12
-8 -12 -2 0 6 3 14 7 17 3 4 9 5 12 2 2 -3 -1 -11 -7 -17z m-339 -8 c-6 -22
-43 -48 -43 -31 0 8 39 51 46 51 1 0 0 -9 -3 -20z m-233 -3 c0 -7 -16 -20 -35
-29 -44 -20 -46 -4 -2 22 38 24 37 23 37 7z m670 -1 c0 -3 -4 -8 -10 -11 -5
-3 -10 -1 -10 4 0 6 5 11 10 11 6 0 10 -2 10 -4z m163 -21 c-3 -9 -8 -14 -10
-11 -3 3 -2 9 2 15 9 16 15 13 8 -4z m-109 -19 c-3 -8 -12 -17 -20 -20 -18 -7
-18 -1 2 18 19 20 25 20 18 2z m-337 -21 c-4 -8 -14 -15 -23 -15 -16 0 -16 2
1 20 20 22 31 20 22 -5z m-512 -95 c-3 -5 -13 -10 -21 -10 -8 0 -12 5 -9 10 3
6 13 10 21 10 8 0 12 -4 9 -10z m765 -109 c0 -5 -12 -16 -26 -26 -26 -17 -26
-10 -1 23 11 14 27 16 27 3z m-64 -58 c-10 -10 -19 5 -10 18 6 11 8 11 12 0 2
-7 1 -15 -2 -18z m-6 -22 c0 -6 -4 -13 -10 -16 -5 -3 -10 1 -10 9 0 9 5 16 10
16 6 0 10 -4 10 -9z m-110 -15 c0 -3 -4 -8 -10 -11 -5 -3 -10 -1 -10 4 0 6 5
11 10 11 6 0 10 -2 10 -4z m-640 -36 c-19 -13 -30 -13 -30 0 0 6 10 10 23 10
18 0 19 -2 7 -10z m180 -64 c0 -7 -82 -57 -87 -53 -2 3 13 17 34 31 35 24 53
32 53 22z m-595 -26 c-3 -5 -10 -10 -16 -10 -5 0 -9 5 -9 10 0 6 7 10 16 10 8
0 12 -4 9 -10z m612 -76 c-3 -3 -12 -4 -19 -1 -8 3 -5 6 6 6 11 1 17 -2 13 -5z
m-197 -103 c0 -11 -31 -24 -39 -16 -3 3 1 10 9 15 19 12 30 12 30 1z m-260
-61 c0 -5 -4 -10 -10 -10 -5 0 -10 5 -10 10 0 6 5 10 10 10 6 0 10 -4 10 -10z
m435 -49 c-3 -6 -14 -11 -23 -11 -13 0 -13 2 4 14 21 15 30 14 19 -3z m375
-61 c0 -5 -4 -10 -10 -10 -5 0 -10 5 -10 10 0 6 5 10 10 10 6 0 10 -4 10 -10z
m40 -10 c0 -5 -7 -10 -15 -10 -8 0 -15 5 -15 10 0 6 7 10 15 10 8 0 15 -4 15
-10z m180 -40 c0 -5 -5 -10 -11 -10 -5 0 -7 5 -4 10 3 6 8 10 11 10 2 0 4 -4
4 -10z m340 -114 c0 -3 -4 -8 -10 -11 -5 -3 -10 -1 -10 4 0 6 5 11 10 11 6 0
10 -2 10 -4z m70 -36 c0 -5 -5 -10 -11 -10 -5 0 -7 5 -4 10 3 6 8 10 11 10 2
0 4 -4 4 -10z m40 -20 c0 -5 -4 -10 -10 -10 -5 0 -10 5 -10 10 0 6 5 10 10 10
6 0 10 -4 10 -10z m-303 -63 c0 -8 -16 -13 -43 -15 -23 -1 -47 -3 -52 -4 -6
-2 -9 2 -8 7 0 6 9 10 18 9 9 0 15 3 12 8 -3 4 12 8 34 8 25 0 39 -5 39 -13z
m148 -7 c11 -19 -25 -22 -62 -7 l-38 16 47 0 c26 1 50 -4 53 -9z m370 -50 c3
-5 1 -10 -4 -10 -6 0 -11 5 -11 10 0 6 2 10 4 10 3 0 8 -4 11 -10z m-379 -38
c-18 -16 -19 -16 -12 1 3 10 6 24 6 30 0 8 4 7 12 -1 10 -9 8 -16 -6 -30z
m419 19 c3 -5 1 -12 -5 -16 -5 -3 -10 1 -10 9 0 18 6 21 15 7z m-225 -21 c-11
-20 -50 -28 -50 -10 0 6 7 10 15 10 8 0 15 5 15 10 0 6 7 10 15 10 13 0 14 -4
5 -20z m300 -30 c0 -5 -4 -10 -10 -10 -5 0 -10 5 -10 10 0 6 5 10 10 10 6 0
10 -4 10 -10z m-435 -20 c14 -6 16 -9 5 -10 -8 -1 -27 -4 -42 -6 -31 -3 -39
12 -10 19 24 7 25 7 47 -3z m139 -5 c11 -8 15 -15 10 -15 -5 0 -10 -9 -10 -20
0 -13 11 -23 30 -30 20 -7 26 -14 20 -20 -13 -13 -64 10 -64 30 0 12 -2 13 -9
1 -14 -22 -32 -3 -25 27 12 48 17 50 48 27z m406 -55 c0 -5 -4 -10 -10 -10 -5
0 -10 5 -10 10 0 6 5 10 10 10 6 0 10 -4 10 -10z m-350 -60 c12 -7 12 -12 0
-34 -19 -36 -30 -32 -30 9 0 36 5 41 30 25z m420 0 c0 -5 -4 -10 -10 -10 -5 0
-10 5 -10 10 0 6 5 10 10 10 6 0 10 -4 10 -10z m-1030 -4 c0 -3 -4 -8 -10 -11
-5 -3 -10 -1 -10 4 0 6 5 11 10 11 6 0 10 -2 10 -4z m266 -23 c13 -13 19 -14
22 -5 5 15 48 16 57 2 5 -8 11 -8 20 0 10 9 18 7 33 -8 13 -13 28 -17 55 -14
36 4 37 3 37 -27 0 -21 5 -31 15 -31 8 0 15 -7 15 -15 0 -8 -4 -15 -9 -15 -10
0 -52 54 -48 61 1 2 -3 -1 -9 -8 -6 -7 -16 -13 -23 -13 -6 0 -11 -5 -11 -10 0
-6 -8 -5 -20 2 -11 7 -20 18 -20 25 0 8 -16 11 -45 10 -25 -1 -45 1 -45 4 0 3
-11 4 -25 1 -18 -3 -25 0 -25 11 0 8 -6 18 -12 20 -10 4 -9 8 2 16 19 13 16
14 36 -6z m373 -84 c17 -31 18 -40 7 -36 -8 3 -17 -1 -21 -10 -4 -13 -8 -14
-17 -5 -9 9 -9 15 0 24 17 17 15 45 -5 57 -16 9 -16 10 -2 11 10 0 26 -18 38
-41z m-51 -137 c-7 -18 -16 -32 -21 -32 -4 0 -7 3 -5 8 32 67 47 81 26 24z
m-43 -51 c3 -5 2 -12 -3 -15 -5 -3 -9 1 -9 9 0 17 3 19 12 6z m30 -31 c3 -5 1
-10 -4 -10 -6 0 -11 5 -11 10 0 6 2 10 4 10 3 0 8 -4 11 -10z m1015 -160 c0
-5 -2 -10 -4 -10 -3 0 -8 5 -11 10 -3 6 -1 10 4 10 6 0 11 -4 11 -10z"/>
<path d="M2945 7320 c3 -5 8 -10 11 -10 2 0 4 5 4 10 0 6 -5 10 -11 10 -5 0
-7 -4 -4 -10z"/>
<path d="M2794 7208 c-4 -7 -14 -24 -22 -38 -13 -21 -10 -20 16 7 18 18 32 34
32 37 0 11 -19 6 -26 -6z"/>
<path d="M2737 7133 c-4 -3 -7 -11 -7 -17 0 -6 5 -5 12 2 6 6 9 14 7 17 -3 3
-9 2 -12 -2z"/>
<path d="M2697 7070 c-10 -16 -14 -30 -8 -30 10 0 41 39 41 52 0 17 -17 6 -33
-22z"/>
<path d="M2503 7011 c-21 -23 -47 -63 -57 -91 -10 -27 -22 -50 -27 -50 -5 0
-9 -8 -9 -17 0 -14 4 -12 25 7 14 13 25 28 25 33 0 5 21 40 46 78 26 38 44 72
41 75 -3 3 -23 -13 -44 -35z"/>
<path d="M2362 6749 c-20 -24 -22 -32 -11 -45 6 -8 15 -11 19 -7 8 8 24 84 18
82 -2 0 -14 -13 -26 -30z"/>
<path d="M2295 6640 c-3 -5 -1 -10 4 -10 6 0 11 5 11 10 0 6 -2 10 -4 10 -3 0
-8 -4 -11 -10z"/>
<path d="M2316 6625 c-3 -9 0 -15 9 -15 8 0 15 7 15 15 0 8 -4 15 -9 15 -5 0
-11 -7 -15 -15z"/>
<path d="M2266 6426 c-14 -19 -26 -45 -26 -58 0 -19 4 -16 23 17 24 43 39 75
33 75 -2 0 -15 -15 -30 -34z"/>
<path d="M2186 6301 c-11 -12 -13 -21 -7 -25 5 -4 15 3 21 15 15 28 7 34 -14
10z"/>
<path d="M2228 6173 c7 -3 16 -2 19 1 4 3 -2 6 -13 5 -11 0 -14 -3 -6 -6z"/>
<path d="M5230 5505 c0 -2 14 -11 30 -20 30 -16 40 -9 18 13 -12 12 -48 17
-48 7z"/>
<path d="M2693 5159 c-30 -9 -32 -12 -35 -62 -3 -45 -6 -52 -25 -55 -13 -2
-23 -5 -23 -6 0 -2 18 -41 41 -87 41 -85 85 -143 101 -133 4 3 8 -3 8 -13 0
-16 1 -16 18 1 12 14 14 20 4 23 -6 3 -10 8 -7 13 3 5 1 20 -5 35 -8 21 -5 38
15 85 14 33 25 68 25 78 0 24 -62 131 -75 131 -5 -1 -24 -5 -42 -10z"/>
<path d="M5296 5048 c-9 -5 -14 -13 -11 -19 4 -5 1 -9 -4 -9 -6 0 -11 -7 -11
-16 0 -9 5 -12 12 -8 6 4 8 3 5 -4 -4 -5 -1 -23 7 -39 8 -15 22 -71 31 -123
25 -146 22 -141 61 -96 19 22 34 44 34 51 0 6 8 20 18 31 47 52 57 119 26 161
-25 33 -145 84 -168 71z"/>
<path d="M3558 4593 c7 -3 16 -2 19 1 4 3 -2 6 -13 5 -11 0 -14 -3 -6 -6z"/>
<path d="M3545 4570 c-3 -5 -1 -10 4 -10 6 0 11 5 11 10 0 6 -2 10 -4 10 -3 0
-8 -4 -11 -10z"/>
<path d="M4526 4314 c-3 -9 1 -51 9 -93 9 -42 14 -91 10 -109 -5 -28 -3 -33
20 -42 21 -8 31 -6 50 8 24 18 41 55 26 60 -4 1 -6 13 -4 26 3 14 -5 33 -21
53 -14 17 -26 43 -26 57 0 14 -5 26 -12 26 -6 0 -19 7 -28 15 -16 14 -18 14
-24 -1z"/>
<path d="M3510 4306 c0 -2 9 -6 20 -9 11 -3 20 -1 20 4 0 5 -9 9 -20 9 -11 0
-20 -2 -20 -4z"/>
<path d="M3493 4270 c-3 -11 -12 -20 -19 -20 -8 0 -14 -4 -14 -8 0 -4 -13 -16
-30 -25 -16 -10 -27 -23 -24 -30 2 -8 -11 -33 -30 -57 -19 -24 -32 -48 -29
-54 4 -5 -1 -7 -10 -3 -9 3 -27 3 -39 -2 l-23 -8 23 -7 c32 -11 27 -33 -18
-75 -45 -42 -53 -60 -15 -35 13 8 29 13 34 10 17 -11 63 5 57 20 -3 7 10 29
28 48 18 19 37 46 44 60 7 16 17 24 26 20 8 -3 17 -1 21 5 4 7 15 5 31 -6 25
-16 26 -16 23 3 -1 10 3 52 11 92 12 63 11 75 -1 83 -23 14 -41 10 -46 -11z
m-133 -250 c0 -5 -8 -10 -17 -10 -15 0 -16 2 -3 10 19 12 20 12 20 0z"/>
<path d="M3741 4070 c-29 -4 -52 -16 -66 -32 -12 -14 -29 -29 -38 -34 -14 -8
-11 -13 19 -33 46 -32 131 -40 166 -17 23 15 30 15 66 3 45 -16 52 -13 52 15
0 16 -51 71 -84 89 -21 13 -71 17 -115 9z"/>
<path d="M4222 4028 c-39 -33 -58 -56 -52 -62 6 -6 14 -5 23 3 15 11 51 11 63
-2 10 -10 51 -9 72 2 9 6 28 12 42 15 17 3 29 16 37 36 10 27 9 32 -10 45 -12
8 -42 15 -67 15 -40 0 -53 -6 -108 -52z"/>
<path d="M3550 3836 c0 -2 11 -11 25 -20 24 -16 25 -16 25 4 0 15 -7 20 -25
20 -14 0 -25 -2 -25 -4z"/>
<path d="M3698 3808 c9 -9 15 -9 24 0 9 9 7 12 -12 12 -19 0 -21 -3 -12 -12z"/>
<path d="M3583 3773 c-18 -7 -16 -23 2 -23 8 0 15 7 15 15 0 8 -1 15 -2 14 -2
0 -9 -3 -15 -6z"/>
<path d="M5063 3715 c-3 -9 -3 -18 -1 -21 9 -9 38 8 38 22 0 19 -29 18 -37 -1z"/>
<path d="M3715 3131 c-7 -12 12 -24 25 -16 11 7 4 25 -10 25 -5 0 -11 -4 -15
-9z"/>
<path d="M3831 3058 c-1 -10 6 -18 14 -18 8 0 15 5 15 11 0 5 -4 8 -9 5 -5 -4
-12 0 -14 6 -3 8 -6 6 -6 -4z"/>
<path d="M3634 3050 c-5 -4 -20 -10 -34 -13 -24 -4 -24 -4 3 -6 20 -1 27 -6
27 -21 0 -13 7 -20 20 -20 23 0 25 8 7 43 -8 16 -18 23 -23 17z"/>
<path d="M3550 2980 c0 -5 5 -10 11 -10 5 0 7 5 4 10 -3 6 -8 10 -11 10 -2 0
-4 -4 -4 -10z"/>
<path d="M3520 2902 c0 -11 3 -12 13 -3 8 6 17 8 20 4 4 -3 7 -1 7 5 0 6 -9
10 -20 9 -11 -1 -20 -8 -20 -15z"/>
<path d="M3595 2800 c-3 -6 1 -7 9 -4 18 7 21 14 7 14 -6 0 -13 -4 -16 -10z"/>
<path d="M1950 2380 c-6 -11 -8 -20 -6 -20 3 0 10 9 16 20 6 11 8 20 6 20 -3
0 -10 -9 -16 -20z"/>
<path d="M1996 2315 c-3 -8 -1 -15 4 -15 6 0 10 7 10 15 0 8 -2 15 -4 15 -2 0
-6 -7 -10 -15z"/>
<path d="M1923 2288 c-19 -24 -24 -38 -15 -38 5 0 14 11 20 25 13 27 10 32 -5
13z"/>
<path d="M1880 2225 c0 -8 2 -15 4 -15 2 0 6 7 10 15 3 8 1 15 -4 15 -6 0 -10
-7 -10 -15z"/>
<path d="M1800 2181 c-40 -34 -37 -47 6 -29 18 8 30 22 31 36 2 12 2 22 0 22
-1 0 -18 -14 -37 -29z"/>
<path d="M1547 2133 c-12 -12 -7 -22 8 -17 8 4 15 10 15 15 0 11 -14 12 -23 2z"/>
<path d="M1663 2095 c-15 -16 -16 -25 -5 -25 4 0 13 9 20 20 14 23 3 26 -15 5z"/>
<path d="M1616 2074 c-3 -8 -10 -13 -15 -9 -5 3 -12 1 -16 -4 -3 -5 -29 -21
-58 -34 -28 -14 -62 -34 -74 -46 -12 -11 -25 -21 -29 -21 -3 0 -37 -20 -74
-45 -37 -25 -72 -45 -78 -45 -5 0 -15 -7 -22 -15 -8 -10 -21 -13 -33 -9 -13 4
-17 2 -13 -5 11 -17 26 -14 96 22 137 69 220 121 220 138 0 11 11 19 35 23 19
4 35 11 35 16 0 6 3 9 8 9 27 -4 52 23 33 36 -5 3 -12 -2 -15 -11z"/>
<path d="M1255 1800 c-3 -6 1 -7 9 -4 18 7 21 14 7 14 -6 0 -13 -4 -16 -10z"/>
<path d="M853 1639 c-18 -5 -35 -14 -38 -19 -8 -13 2 -12 47 3 67 24 60 36 -9
16z"/>
<path d="M1330 1620 c-13 -8 -12 -10 3 -10 9 0 17 5 17 10 0 12 -1 12 -20 0z"/>
<path d="M1236 1601 c-4 -5 3 -7 14 -4 23 6 26 13 6 13 -8 0 -17 -4 -20 -9z"/>
<path d="M820 1582 c0 -4 12 -8 28 -9 23 -1 24 -1 7 7 -26 11 -35 12 -35 2z"/>
<path d="M1755 1688 c-24 -26 -24 -28 -5 -28 20 0 60 32 60 48 0 18 -31 7 -55
-20z"/>
<path d="M1730 1610 c0 -13 18 -22 24 -11 3 5 -1 11 -9 15 -8 3 -15 1 -15 -4z"/>
<path d="M1841 1556 c-7 -8 -8 -17 -3 -20 6 -3 15 1 21 8 7 8 8 17 3 20 -6 3
-15 -1 -21 -8z"/>
<path d="M1890 1508 c-29 -44 -31 -53 -6 -25 14 15 26 32 26 38 0 14 -4 11
-20 -13z"/>
<path d="M1744 1355 c-10 -8 -14 -14 -9 -14 6 0 19 6 29 14 11 8 15 15 10 15
-6 0 -19 -7 -30 -15z"/>
<path d="M1702 1310 c-7 -11 -8 -20 -3 -20 9 0 24 30 18 36 -1 2 -8 -6 -15
-16z"/>
<path d="M1670 1235 c-7 -8 -8 -15 -2 -15 5 0 15 7 22 15 7 8 8 15 2 15 -5 0
-15 -7 -22 -15z"/>
<path d="M1595 1199 c-4 -6 -5 -12 -2 -15 2 -3 7 2 10 11 7 17 1 20 -8 4z"/>
<path d="M6451 3723 c25 -43 39 -60 39 -50 0 11 -49 87 -56 87 -3 0 4 -17 17
-37z"/>
<path d="M6560 3512 c0 -5 7 -15 15 -22 8 -7 15 -8 15 -2 0 5 -7 15 -15 22 -8
7 -15 8 -15 2z"/>
<path d="M6601 3462 c-1 -7 10 -34 24 -60 14 -26 25 -42 25 -36 0 16 -49 111
-49 96z"/>
</g>
</svg>
