<?xml version="1.0" encoding="UTF-8"?>
<svg shape-rendering="geometricPrecision" text-rendering="geometricPrecision" viewBox="0 0 500 500" xmlns="http://www.w3.org/2000/svg">
<path d="m454.54 349.08c2.398-4.687 4.572-9.495 6.495-14.417 10.579-27.08 13.479-56.706 11.862-85.734-3.572-64.11-29.142-139.28-89.024-171.04-18.057-9.575-35.302-18.969-56.269-19.663-43.98-1.456-81.95 30.676-108.74 65.583s-48.022 75.129-82.518 102.45c-20.058 15.885-43.683 26.61-64.711 41.187-21.027 14.577-40.278 34.692-44.706 59.892-1.271 7.236-1.213 14.553-0.07 21.737h427.68z" fill="#c77df3"/>
<line x1="55.78" x2="462.82" y1="349.14" y2="349.14" fill="none" stroke="#383838" stroke-linecap="round" stroke-linejoin="round" stroke-miterlimit="10" stroke-width=".5669"/>
<path d="m332.44 164.16c-15.417 0-27.915 12.498-27.915 27.915 0 7.87 3.262 14.974 8.501 20.048l-6.225 13.728 14.279-8.279c3.472 1.549 7.314 2.418 11.361 2.418 15.417 0 27.915-12.498 27.915-27.915s-12.498-27.915-27.916-27.915z" fill="#1b75bc"/>
<text transform="translate(314.08 198.49)" dx="0" dy="0" fill="#fff" font-family='"CourierNewPS-BoldMT"' font-size="20.359" font-weight="400"><tspan y="0" font-weight="400">AWS</tspan></text>
<path d="M382.19,241.856h-43.679c-.33,0-.601.27-.601.601v5.574h-10.962l10.962,9.7v26.003c0,.33.27.601.601.601h43.679c.331,0,.601-.27.601-.601v-41.277c0-.331-.27-.601-.601-.601Z" fill="#262262"/>
<text transform="translate(347.62 268.34)" dx="0" dy="0" fill="#fff" font-family='"CourierNewPS-BoldMT"' font-size="20.359" font-weight="400"><tspan y="0" font-weight="400">DB</tspan></text>
<g transform="translate(0-28)">
<path d="M344.853,100.215h-82.722c-.453,0-.824.371-.824.824v40.831c0,.453.371.824.824.824h12.582l1.038,11.585l9.277-11.585h59.825c.453,0,.824-.371.824-.824v-40.831c0-.453-.371-.824-.824-.824Z" fill="#df4438"/>
<text transform="translate(278.3 127.25)" dx="0" dy="0" fill="#fff" font-family='"CourierNewPS-BoldMT"' font-size="20.359" font-weight="400"><tspan y="0" font-weight="400">JAVA</tspan></text>
</g>
<path d="M222.242,107.422h-82.722c-.453,0-.824.371-.824.824v40.831c0,.453.371.824.824.824h59.825l9.277,11.585l1.037-11.585h12.582c.453,0,.824-.371.824-.824v-40.831c0-.454-.37-.824-.823-.824Z" fill="#8dc63f"/>
<text transform="translate(161.89 132.5)" dx="0" dy="0" fill="#fff" font-family='"CourierNewPS-BoldMT"' font-size="20.359" font-weight="400">HTML</text>
<g transform="translate(0 .003005)">
<path d="M167.188,174.717h-43.679c-.33,0-.601.27-.601.601v41.277c0,.331.27.601.601.601h20.559l9.277,11.585l1.038-11.585h12.805c.33,0,.601-.27.601-.601v-41.277c-.001-.331-.271-.601-.601-.601Z" fill="#fbb040"/>
<text transform="translate(132.93 204.79)" dx="0" dy="0" fill="#fff" font-family='"CourierNewPS-BoldMT"' font-weight="400"><tspan x="0" y="0" font-size="27.326">JS</tspan></text>
</g>
<path d="M216.632,218.425c-3.112,3.889-7.919,6.935-8.713,11.852-.612,3.789,1.445,7.487,3.804,10.514s5.156,5.853,6.447,9.467c1.306,3.654.911,7.657.889,11.537-.023,3.88.476,8.074,3.106,10.927c2.391,2.594,6.043,3.538,9.501,4.24c6.965,1.414,14.029,2.343,21.123,2.779c6.706.412,14.449-.077,18.571-5.383c5.553-7.146,1.066-18.54,6.205-25.99c1.201-1.741,2.848-3.12,4.249-4.704c3.928-4.438,5.827-10.919,3.852-16.508-1.504-4.256-4.964-7.514-7.068-11.508-2.422-4.598-2.94-9.964-2.83-15.159.045-2.124.182-4.292-.413-6.332-.668-2.293-2.206-4.227-3.84-5.969-4.768-5.082-10.771-9.127-17.497-10.948s-14.191-1.289-20.284,2.093c-3.203,1.778-5.951,4.271-8.509,6.894-4.54,4.656-6.406,9.143-5.066,15.502c1.246,5.911.346,11.856-3.527,16.696Z" fill="#442614"/>
<path d="M227.598,201.3c-.407,5.357-1.555,10.958-5.12,14.977-1.893,2.134-4.374,3.706-6.14,5.947-2.421,3.072-3.267,7.324-2.205,11.089c1.304,4.624,5.123,8.092,7.162,12.442c1.604,3.421,2.046,7.255,2.438,11.013c2.066-1.11,2.975-3.693,2.799-6.032s-1.226-4.509-2.232-6.627c-1.007-2.118-2.006-4.324-2.071-6.668-.088-3.214,1.59-6.205,3.483-8.805c1.892-2.599,4.08-5.054,5.281-8.036c1.946-4.832,1.03-10.284.085-15.408c2.848,7.237,5.739,15.123,3.624,22.607-.975,3.451-2.98,6.6-3.497,10.148-.549,3.768.663,7.624,2.625,10.888c1.961,3.264,4.636,6.03,7.285,8.765.297-6.992.596-14.001,1.636-20.922.223-1.483.503-3.018,1.376-4.237.788-1.101,1.977-1.83,3.052-2.653c3.706-2.842,6.224-7.049,7.568-11.522c1.344-4.474,1.577-9.217,1.304-13.88.43,5.182,3.332,10.174,2.452,15.299-.415,2.418-1.65,4.618-2.259,6.995-.196.764-.326,1.568-.167,2.34.212,1.027.902,1.876,1.533,2.713c2.097,2.786,3.767,5.965,4.349,9.404.959,5.669-1.09,11.367-3.105,16.752c1.899-.397,3.321-1.93,4.608-3.382c1.763-1.988,3.565-4.044,4.454-6.548c1.627-4.584-.11-9.605-1.81-14.163-1.699-4.558-3.38-9.616-1.653-14.163c1.314-3.459,4.486-6.195,4.882-9.873-1.233,1.605-.249,3.918.867,5.607c1.579,2.39,3.388,4.632,4.792,7.13s2.4,5.331,2.156,8.186c-.215,2.518-1.365,4.844-2.372,7.163-2.567,5.914-4.288,12.719-1.993,18.744.697-5.888,4.536-10.864,6.739-16.369c1.946-4.865,2.581-10.451.684-15.335-1.382-3.556-3.973-6.479-6.131-9.626-2.158-3.146-3.964-6.864-3.419-10.64.107-.739.116-1.774-.616-1.918" fill="none" stroke="#b74913" stroke-linecap="round" stroke-linejoin="round" stroke-miterlimit="10" stroke-width=".2835"/>
<path d="m239.18 218.56s-1.283 25.905-2.909 33.306 7.034 10.853 13.924 10.871c4.942 0.013 12.801-2.574 10.989-10.177 0 0-5.374-25.674-4.97-34h-17.034z" fill="#eeb399"/>
<path d="M256.215,218.56h-17.034c0,0-.279,5.621-.74,12.374c3.7,1.702,9.967,3.208,18.991.871-.794-5.31-1.358-10.337-1.217-13.245Z" fill="#d89e87"/>
<path d="m295.76 261.24c-2.598-7.321-9.168-9.567-20.627-11.031s-17.531-7.224-17.531-7.224h-17.671s-6.071 5.76-17.531 7.224-18.029 3.709-20.627 11.031c-2.597 7.322 0.917 21.086 9.32 33.776 8.404 12.69 5.653 40.512 5.653 40.512h64.039s-2.75-27.821 5.653-40.512c8.406-12.691 11.92-26.455 9.322-33.776z" fill="#eeb399"/>
<path d="m218.18 184.8s-1.325 40.211 28.054 43.326c29.379 3.114 31.367-33.661 31.367-43.326 0 0-1.335-23.081-29.715-23.284-28.381-0.203-29.908 17.558-29.706 23.284z" fill="#eeb399"/>
<path d="M262.64,164.348c-4.839-1.132-9.99-.953-14.705.625-2.521.844-4.902,2.058-7.228,3.347-5.328,2.952-10.511,6.396-14.364,11.113-2.14,2.619-3.823,5.574-5.496,8.514-.534.939-1.617,2.654-2.293,4.375.15,1.445.363,3.039.654,4.73c2.02.975,6.326.018,8.094-.263c3.316-.528,6.557-1.523,9.598-2.947c1.625-.76,7.827-3.454,8.233-5.371-.568,2.684-1.839,5.216-3.651,7.276c5.606-.99,10.627-4.849,13.027-10.012.574,2.724.698,5.542.364,8.306c1.479-1.979,2.707-4.145,3.647-6.429c4.335,5.818,10.749,10.035,17.796,11.756c1.099-6.113,1.29-11.61,1.29-14.566c0,.001-.832-14.253-14.966-20.454Z" fill="#d89e87"/>
<path d="M278.031,198.14c1.442-.11,2.796.905,3.459,2.19.663,1.286.752,2.789.682,4.234-.071,1.455-.298,2.928-.935,4.238s-1.727,2.449-3.113,2.898-3.062.097-3.977-1.036c-2.469-3.06-.75-12.171,3.884-12.524Z" fill="#eeb399"/>
<g fill="#a5583d">
<path d="M276.644,210.158c-.092,0-.177-.061-.203-.154-1.714-6.198,1.845-10.246,1.881-10.286.079-.087.209-.092.297-.016.086.077.093.21.016.297-.035.039-3.44,3.925-1.789,9.893.03.112-.035.227-.147.259-.018.005-.037.007-.055.007Z"/>
<path d="M276.298,208.502c-.074,0-.145-.039-.184-.109-.056-.102-.019-.229.082-.285c3.284-1.809,1.156-6.685,1.134-6.734-.047-.106,0-.23.106-.277.104-.045.23,0,.277.106.023.053,2.307,5.278-1.315,7.273-.03.017-.065.026-.1.026Z"/>
</g>
<path d="M219.493,198.14c-1.442-.11-2.796.905-3.459,2.19-.663,1.286-.752,2.789-.682,4.234.071,1.455.298,2.928.935,4.238s1.727,2.449,3.113,2.898s3.063.097,3.977-1.036c2.469-3.06.75-12.171-3.884-12.524Z" fill="#eeb399"/>
<g fill="#a5583d">
<path d="M220.88,210.158c.092,0,.176-.061.202-.154c1.714-6.198-1.845-10.246-1.881-10.286-.079-.087-.209-.092-.297-.016-.086.077-.093.21-.016.297.035.039,3.44,3.925,1.788,9.893-.03.112.035.227.147.259.02.005.039.007.057.007Z"/>
<path d="M221.226,208.502c.074,0,.145-.039.184-.109.056-.102.019-.229-.082-.285-3.284-1.809-1.156-6.685-1.134-6.734.047-.106,0-.23-.106-.277-.104-.045-.23,0-.277.106-.023.053-2.307,5.278,1.315,7.273.03.017.065.026.1.026Z"/>
</g>
<path d="M225.208,200.374c.054,1.26.283,2.52.163,3.776-.119,1.256-.668,2.563-1.77,3.178-.25-2.466-1.448-4.75-2.936-6.733-.575-.767-1.227-1.577-1.244-2.536.989-.427,1.977-.854,2.966-1.282.589-.255,1.139-.593,1.727-.852.218-.096,1.589-.484,1.613-.54-.694,1.575-.591,3.31-.519,4.989Z" fill="#442614"/>
<path d="M270.901,200.374c-.054,1.26-.283,2.52-.163,3.776.119,1.256.668,2.563,1.77,3.178.25-2.466,1.448-4.75,2.936-6.733.575-.767,1.227-1.577,1.244-2.536-.989-.427-1.978-.854-2.966-1.282-.589-.255-1.139-.593-1.727-.852-.218-.096-1.589-.484-1.613-.54.694,1.575.591,3.31.519,4.989Z" fill="#442614"/>
<path d="m219.49 198.14s25.465-7.911 31.735-19.701c0 0-3.082 13.277-7.147 16.477 0 0 9.772-5.239 10.811-14.643 0 0 3.285 9.624 1.271 13.919 0 0 3.188-8.372 2.322-14.642 0 0 10.034 17.049 17.786 20.099 0 0 14.569-39.993-26.456-39.39-41.027 0.603-33.121 26.933-30.322 37.881z" fill="#442614"/>
<g fill="#a5583d">
<path d="M253.786,198.733c.239,1.187.587,2.399,1.177,3.379.583,1.004,1.456,1.631,2.495,1.619c1.062.032,1.927-.557,2.468-1.557.284-.484.481-1.049.623-1.63.167-.576.263-1.191.34-1.787l.003-.024c.02-.154.161-.263.315-.243.131.017.229.122.243.248.145,1.312.044,2.643-.511,3.937-.278.642-.726,1.255-1.346,1.708-.634.458-1.414.617-2.148.629-.743.001-1.517-.254-2.123-.699-.618-.445-1.036-1.057-1.331-1.676-.597-1.251-.801-2.56-.766-3.876.004-.155.133-.278.288-.274.134.003.243.1.268.225l.005.021Z"/>
<path d="M243.442,198.76c.034,1.316-.169,2.626-.766,3.876-.295.619-.712,1.231-1.331,1.676-.607.445-1.38.7-2.124.699-.734-.012-1.514-.171-2.148-.629-.62-.453-1.069-1.066-1.346-1.708-.555-1.294-.656-2.625-.511-3.937.017-.154.156-.265.31-.248.131.015.232.118.248.243l.003.024c.077.596.172,1.212.34,1.787.142.581.338,1.146.623,1.63.541,1,1.406,1.589,2.468,1.557c1.039.013,1.912-.615,2.495-1.619.59-.98.938-2.192,1.177-3.379l.004-.021c.031-.152.179-.251.331-.22.133.027.224.141.227.269Z"/>
</g>
<path d="M248.495,205.559c.232.724.402,1.475.504,2.242v0l-.477-.227c.401-.287.824-.541,1.264-.76.22-.109.444-.21.671-.302.232-.082.433-.198.765-.225.161-.012.374.049.503.189.13.134.182.286.217.422.062.267.066.533.03.792-.072.519-.293.979-.545,1.399-.517.829-1.151,1.569-1.874,2.211-.72.619-1.526,1.253-2.514,1.384-.034.004-.064-.019-.069-.052-.004-.033.019-.063.051-.069.931-.162,1.687-.802,2.368-1.44.678-.653,1.267-1.404,1.726-2.214.221-.404.4-.834.439-1.267.05-.409-.077-.971-.308-.875-.147.011-.38.124-.59.215-.211.096-.418.2-.621.311-.406.223-.792.48-1.156.762l-.016.013c-.125.097-.304.074-.401-.051-.044-.056-.063-.124-.06-.19v0c.041-.737.017-1.484-.074-2.229-.006-.047.028-.09.075-.096.041-.008.079.018.092.057Z" fill="#e53d2e"/>
<path d="M236.173,213.544c1.18,1.156,2.518,2.161,3.944,2.978c1.422.832,2.969,1.43,4.566,1.784.792.22,1.616.264,2.43.343.82-.009,1.643.019,2.459-.115c1.649-.154,3.225-.712,4.793-1.293.012-.006.027-.001.033.011.006.011-.001.026-.012.033-.757.352-1.502.761-2.298,1.04-.805.252-1.607.54-2.453.643-1.668.343-3.411.257-5.079-.076-1.675-.338-3.275-1.003-4.729-1.882-1.438-.908-2.761-1.994-3.828-3.32-.039-.049-.031-.12.017-.159.045-.036.11-.032.15.007l.007.006Z" fill="#a5583d"/>
<ellipse transform="matrix(.7071 -.7071 .7071 .7071 239.3 201.08)" rx="7.278" ry="7.278" fill="#fff" opacity=".3"/>
<ellipse transform="matrix(.2305 -.9731 .9731 .2305 257.86 201.08)" rx="7.278" ry="7.278" fill="#fff" opacity=".3"/>
<ellipse transform="matrix(.7071 -.7071 .7071 .7071 239.3 201.08)" rx="7.278" ry="7.278" fill="none" stroke="#231f20" stroke-miterlimit="10" stroke-width=".5669"/>
<ellipse transform="matrix(.2305 -.9731 .9731 .2305 257.86 201.08)" rx="7.278" ry="7.278" fill="none" stroke="#231f20" stroke-miterlimit="10" stroke-width=".5669"/>
<path d="m246.58 201.75s1.957-1.302 3.991 0" fill="none" stroke="#231f20" stroke-miterlimit="10" stroke-width=".5669"/>
<path d="m265.13 201.08s8.192 0.065 10.507-1.43" fill="none" stroke="#231f20" stroke-linecap="round" stroke-linejoin="round" stroke-miterlimit="10" stroke-width=".5669"/>
<path d="m231.94 201.08s-9.768-1.072-12.45-2.939" fill="none" stroke="#231f20" stroke-linecap="round" stroke-linejoin="round" stroke-miterlimit="10" stroke-width=".5669"/>
<path d="M258.927,188.907c-.577.061-1.328.41-1.765.794-.329.288-.546.747-.427,1.167.274.966,2.935.745,3.718.87c1.458.233,2.9.625,4.214,1.313.263.138.542.292.837.258.538-.061.816-.748.646-1.262-.169-.514-.629-.872-1.082-1.168-1.153-.755-2.425-1.33-3.754-1.697-.776-.214-1.585-.359-2.387-.275Z" fill="#442614"/>
<path d="M239.669,189.913c.577.061,1.328.41,1.765.794.328.288.546.746.427,1.167-.274.966-2.935.745-3.719.87-1.458.233-2.9.625-4.214,1.313-.263.138-.542.292-.837.258-.538-.061-.816-.748-.646-1.262.169-.514.629-.872,1.082-1.168c1.153-.755,2.425-1.33,3.753-1.697.778-.214,1.588-.359,2.389-.275Z" fill="#442614"/>
<path d="m258.44 161.52s-46.249-4.977-38.252 35.608c0 0 31.856-15.742 39.235-33.574 0 0-0.176 18.986 16.207 34.581 1e-3 0 10.112-30.654-17.19-36.615z" fill="none" stroke="#b74913" stroke-linecap="round" stroke-linejoin="round" stroke-miterlimit="10" stroke-width=".2835"/>
<path d="m259.43 162.57s-36.779-0.492-39.235 34.558c0 0 19.804-29.147 39.235-33.574 0 0 15.812 16.157 16.207 34.581 1e-3 1e-3 4.578-27.325-16.207-35.565z" fill="none" stroke="#b74913" stroke-linecap="round" stroke-linejoin="round" stroke-miterlimit="10" stroke-width=".2835"/>
<path d="m253.22 178.44c5.232-6.019 6.206-14.889 6.206-14.889s-2.537 9.414-1.995 16.799" fill="none" stroke="#b74913" stroke-linecap="round" stroke-linejoin="round" stroke-miterlimit="10" stroke-width=".2835"/>
<path d="M258.531,161.226c-2.568-.88-5.305-1.294-8.024-1.5-2.728-.195-5.471-.117-8.195.145-2.716.33-5.422.784-8.065,1.509-1.337.302-2.622.788-3.936,1.174-1.295.445-2.566.959-3.85,1.435-.028.013-.06,0-.073-.027-.013-.028.003-.062.031-.074c1.284-.484,2.555-1.005,3.85-1.458c1.314-.393,2.6-.887,3.939-1.197c2.646-.741,5.359-1.21,8.083-1.556c2.733-.277,5.488-.371,8.233-.189c2.741.195,5.479.589,8.11,1.475.074.025.114.105.089.18-.025.074-.105.114-.18.089h-.001l-.011-.006Z" fill="#442614"/>
<path d="M271.562,166.614c1.547.902,2.822,2.144,3.932,3.506c1.105,1.37,1.995,2.9,2.715,4.499.692,1.614,1.208,3.298,1.551,5.016.194.854.266,1.731.404,2.595.075.872.117,1.747.177,2.619.002.022-.015.04-.036.042-.021.001-.04-.018-.042-.039-.069-.87-.119-1.742-.202-2.61-.147-.86-.227-1.732-.428-2.58-.358-1.707-.887-3.375-1.589-4.968-.73-1.579-1.626-3.084-2.729-4.426-1.102-1.331-2.393-2.553-3.88-3.4l-.013-.008c-.068-.039-.092-.125-.053-.193s.125-.092.193-.053v0Z" fill="#442614"/>
<path d="M220.023,214.077c-2.08,2.234-4.248,4.383-6.557,6.379-1.157.997-2.396,1.889-3.379,3.054-.986,1.138-1.865,2.437-2.246,3.906-.002.017-.017.029-.034.028-.017-.002-.028-.021-.027-.038.369-1.498,1.237-2.81,2.218-3.972.977-1.185,2.219-2.104,3.354-3.107c2.276-2.017,4.416-4.19,6.46-6.439.051-.059.141-.065.2-.014s.065.141.014.2l-.003.003Z" fill="#442614"/>
<path d="M277.179,247.92c1.291-1.03,2.564-2.086,3.818-3.163c1.248-1.082,2.492-2.177,3.65-3.347c1.122-1.193,1.755-2.771,2.191-4.348.432-1.59.668-3.236.751-4.882c0-.028.023-.051.051-.051s.051.025.051.053c-.068,1.658-.29,3.31-.71,4.917-.427,1.594-1.046,3.198-2.195,4.444-1.158,1.192-2.391,2.297-3.633,3.394-1.247,1.091-2.51,2.159-3.797,3.205-.061.049-.15.04-.199-.021s-.04-.15.02-.199l.002-.002Z" fill="#442614"/>
<g fill="#e53d2e">
<path d="M265.103,206.982c0,.25-.203.453-.453.453s-.453-.203-.453-.453.203-.453.453-.453c.25.001.453.203.453.453Z"/>
<path d="M267.297,205.788c0,.25-.203.453-.453.453s-.453-.203-.453-.453.203-.453.453-.453c.25.001.453.203.453.453Z"/>
<path d="M268.202,208.868c0,.25-.203.453-.453.453s-.453-.203-.453-.453.203-.453.453-.453.453.203.453.453Z"/>
</g>
<g fill="#e53d2e">
<path d="M230.779,206.982c0,.25.203.453.453.453s.453-.203.453-.453-.203-.453-.453-.453c-.25.001-.453.203-.453.453Z"/>
<circle transform="translate(229.04 205.79)" r=".453"/>
<path d="M227.68,208.868c0,.25.203.453.453.453s.453-.203.453-.453-.203-.453-.453-.453c-.251,0-.453.203-.453.453Z"/>
</g>
<path d="m201.77 261.24c-2.597 7.322 0.917 21.086 9.32 33.776 8.404 12.69 5.654 40.512 5.654 40.512h64.039s-2.75-27.821 5.653-40.512c8.404-12.69 11.918-26.454 9.32-33.776-2.389-6.734-8.15-9.171-17.973-10.658-11.779 5.975-23.406 7.307-23.406 7.307l-7.243 12.966-6.018-13.255c-8.68 1.194-17.95-3.501-23.131-6.734-8.758 1.516-13.972 4.051-16.215 10.374z" fill="#f95b5e"/>
<path d="M240.947,348.099l-19.592-33.522l5.478-47.847c.811-7.084-4.274-13.484-11.358-14.295s-13.484,4.274-14.295,11.358l-5.947,51.944-.168,1.467c-.306,2.81.618,5.729,2.771,7.885l31.744,31.776c2.27,2.271,5.869,2.829,8.77,1.133c3.451-2.017,4.614-6.449,2.597-9.899Z" fill="#f95b5e"/>
<g fill="#772020">
<path d="M217.658,299.448c-.116,0-.222-.077-.255-.194l-1.639-5.971c-1.046-3.813-2.127-7.755-2.209-11.798-.093-4.514,1.129-9.138,3.44-13.019.075-.125.237-.166.362-.091.126.075.167.236.092.362-2.261,3.797-3.457,8.32-3.367,12.737.081,3.978,1.154,7.888,2.191,11.669l1.639,5.971c.039.141-.044.285-.185.325-.023.006-.046.009-.069.009Z"/>
<path d="M213.818,278.679c-.123,0-.234-.086-.259-.213-.546-2.767-.821-5.599-.817-8.42.001-.147.119-.264.264-.264h.001c.146,0,.264.118.264.264-.004,2.787.267,5.585.807,8.318.028.143-.065.282-.208.31-.018.004-.035.005-.052.005Z"/>
</g>
<path d="m217.66 299.45v11.4s2.848 2.276 8.07 11.211 8.255 14.125 8.255 14.125" fill="none" stroke="#772020" stroke-linecap="round" stroke-linejoin="round" stroke-miterlimit="10" stroke-width=".5669"/>
<path d="m217.66 310.85s-0.618-2.806-9.073-1.42" fill="none" stroke="#772020" stroke-linecap="round" stroke-linejoin="round" stroke-miterlimit="10" stroke-width=".5669"/>
<path d="m206.12 311.83s4.143-2.492 10.127-0.981" fill="none" stroke="#772020" stroke-linecap="round" stroke-linejoin="round" stroke-miterlimit="10" stroke-width=".5669"/>
<path d="m226.84 309.97c14.811 0.14 29.601 2.288 43.839 6.367" fill="none" stroke="#772020" stroke-linecap="round" stroke-linejoin="round" stroke-miterlimit="10" stroke-width=".5669"/>
<path d="m239.08 314.09c5.733 1.97 11.653 3.395 17.655 4.248" fill="none" stroke="#772020" stroke-linecap="round" stroke-linejoin="round" stroke-miterlimit="10" stroke-width=".5669"/>
<path d="M256.592,348.099l19.592-33.522-5.478-47.847c-.811-7.084,4.274-13.484,11.358-14.295s13.484,4.274,14.295,11.358l5.947,51.944.168,1.467c.306,2.81-.618,5.729-2.771,7.885l-31.744,31.776c-2.27,2.271-5.869,2.829-8.77,1.133-3.451-2.017-4.613-6.449-2.597-9.899Z" fill="#f95b5e"/>
<g fill="#772020">
<path d="M279.882,299.448c.116,0,.222-.077.255-.194l1.639-5.971c1.046-3.813,2.127-7.755,2.209-11.798.093-4.514-1.129-9.138-3.44-13.019-.075-.125-.237-.166-.362-.091s-.166.236-.092.362c2.261,3.797,3.457,8.32,3.366,12.737-.081,3.978-1.154,7.888-2.191,11.669l-1.639,5.971c-.039.141.044.285.185.325.023.006.046.009.07.009Z"/>
<path d="M283.721,278.679c.123,0,.234-.086.259-.213.546-2.767.821-5.599.817-8.42-.001-.147-.119-.264-.264-.264v0c-.146,0-.264.118-.264.264.004,2.787-.267,5.585-.807,8.318-.028.143.065.282.208.31.017.004.034.005.051.005Z"/>
</g>
<path d="m279.88 299.45v11.4s-2.848 2.276-8.07 11.211-8.255 14.125-8.255 14.125" fill="none" stroke="#772020" stroke-linecap="round" stroke-linejoin="round" stroke-miterlimit="10" stroke-width=".5669"/>
<path d="m279.88 310.85s0.618-2.806 9.073-1.42" fill="none" stroke="#772020" stroke-linecap="round" stroke-linejoin="round" stroke-miterlimit="10" stroke-width=".5669"/>
<path d="m291.42 311.83s-4.143-2.492-10.127-0.981" fill="none" stroke="#772020" stroke-linecap="round" stroke-linejoin="round" stroke-miterlimit="10" stroke-width=".5669"/>
<polygon points="313.35 364.23 184.13 364.23 171.35 294.2 326.19 294.2" fill="#d1d3d4"/>
<path d="M244.496,322.122c-.272-.284-.582-.571-.643-.926-.117-.676.773-1.235,1.62-1.263c1.423-.047,2.63.962,3.013,2.067s.139,2.28-.107,3.41c2.889-.538,6.084,1.387,6.259,3.772.088,1.198-.471,2.356-.813,3.523-.342,1.168-.431,2.502.461,3.463.509.547,1.284.91,1.76,1.476c1.189,1.416-.077,3.448-1.926,4.286-2.725,1.235-6.388.636-8.646-1.106s-3.182-4.417-2.874-6.923c.547-4.465,6.057-7.436,1.896-11.779Z" fill="#fff"/>
<polygon points="108.37 362.03 127.79 355.81 105.75 353.9 86.045 360.08" fill="#747477"/>
<polygon points="157.73 253.28 169.4 331.87 53.811 312.56 38.768 238.45" fill="#d1d3d4"/>
<polygon points="125.23 279.58 130.95 318.05 74.36 308.6 67.391 270.59" fill="#b3babc"/>
<polygon points="86.045 292.54 86.045 360.08 108.37 362.03 108.37 295.04" fill="#acaeaf"/>
<polygon points="108.37 295.04 86.045 292.54 86.045 294.25 106.2 296.54 106.2 361.84 106.2 361.84 108.37 362.03" fill="#909091"/>
<polygon points="125.23 279.58 67.391 270.59 67.801 272.82 123.46 281.73 128.72 317.68 130.95 318.05" fill="#909091"/>
<polygon points="157.73 253.28 38.768 238.45 39.503 242.07 155.95 255.24 167.17 331.5 169.4 331.87" fill="#909091"/>
<g fill="#909091">
<polygon points="84.241 258.86 82.795 258.72 81.653 249.54 83.099 249.68"/>
<polygon points="87.071 259.15 85.625 259 84.483 249.82 85.929 249.97"/>
<polygon points="89.901 259.43 88.455 259.28 87.313 250.11 88.759 250.25"/>
<polygon points="92.731 259.72 91.285 259.57 90.143 250.39 91.589 250.54"/>
<polygon points="95.562 260 94.116 259.85 92.973 250.68 94.419 250.82"/>
<polygon points="98.392 260.28 96.946 260.14 95.803 250.96 97.249 251.11"/>
<polygon points="101.22 260.57 99.776 260.42 98.633 251.25 100.08 251.39"/>
<polygon points="104.05 260.85 102.61 260.71 101.46 251.53 102.91 251.68"/>
<polygon points="106.88 261.14 105.44 260.99 104.29 251.82 105.74 251.96"/>
<polygon points="109.71 261.42 108.27 261.28 107.12 252.1 108.57 252.24"/>
<polygon points="112.54 261.7 111.1 261.56 109.95 252.38 111.4 252.53"/>
</g>
<path d="M371.61,341.083c-.216-.069-.442-.102-.668-.102h-4.004v-4.408c0-.356-.194-.678-.512-.838-1.145-.577-4.495-1.751-12.777-1.751-8.45,0-11.765,1.222-12.844,1.785-.273.142-.445.417-.445.724v31.076c0,0,3.579,2.226,12.477,2.226c8.897,0,14.101-2.226,14.101-2.226v-2.784h4.786c.402,0,.796-.109,1.142-.315.669-.402,4.011-2.864,4.011-11.881c0-9.566-4.727-11.336-5.267-11.506Zm-.783,19.267h-3.889v-14.933h3.431c.57.459,2.073,2.141,2.073,7.173-.001,4.885-1.107,7.025-1.615,7.76Z" fill="#ff9494"/>
<path d="M365.63,336.676c0,1.063-5.364,1.925-11.981,1.925s-11.981-.862-11.981-1.925c0-1.064,5.364-1.926,11.981-1.926s11.981.862,11.981,1.926Z"/>
<path d="m347.08 337.7s-1.74-0.333-1.893 3.793 0 9.321 0 9.321" fill="none" stroke="#fff" stroke-linecap="round" stroke-linejoin="round" stroke-miterlimit="10"/>
<path d="M345.116,350.953l-1.449,1.923c0,0-.196,3.625-.159,3.625s4.115.086,4.115.086l.135-3.539-2.642-2.095Z" fill="#262262"/>
<path d="M356.8,320.63c.733-1.21,1.801-2.173,2.72-3.249c3.802-4.449,4.867-11.063,2.653-16.48c1.982,2.034,3.608,4.495,4.255,7.261s.219,5.856-1.521,8.101c-1.213,1.565-2.955,2.625-4.348,4.032-2.95,2.98-3.703,7.011-3.178,11.026-2.655-1.613-1.928-8.467-.581-10.691Z" fill="#fff"/>
<path d="M347.307,320.63c.733-1.21,1.801-2.173,2.72-3.249c3.802-4.449,4.867-11.063,2.653-16.48c1.982,2.034,3.609,4.495,4.255,7.261.647,2.766.219,5.856-1.521,8.101-1.213,1.565-2.955,2.625-4.348,4.032-2.95,2.98-3.703,7.011-3.177,11.026-2.656-1.613-1.929-8.467-.582-10.691Z" fill="#fff"/>
<path d="M142.82,354.641c-.608-2.833-1.032-5.93.282-8.512s5.06-4.055,7.216-2.119c1.076.966,1.47,2.461,2.232,3.69.761,1.229,2.352,2.259,3.598,1.526.027-8.098-.145-16.196-.516-24.286-.19-4.14-.354-8.591,1.891-12.074s7.936-4.957,10.489-1.693c.879,1.124,1.221,2.567,1.477,3.971c2.834,15.567-2.234,31.533-9.199,45.74-.551,1.125-1.128,2.262-2.001,3.161-2.216,2.282-8.327,3.333-11.196,1.687-2.974-1.707-3.579-7.857-4.273-11.091Z" fill="#39b54a"/>
<path d="m165.06 309.45s8.318 32.755-12.246 56.271" fill="none" stroke="#fff" stroke-linecap="round" stroke-linejoin="round" stroke-miterlimit="10" stroke-width=".2835"/>
<path d="m162.9 309.45s4.772 37.31-12.939 56.271" fill="none" stroke="#fff" stroke-linecap="round" stroke-linejoin="round" stroke-miterlimit="10" stroke-width=".2835"/>
<path d="m148.57 365.72c-6.958-13.016-3.189-21.9-3.189-21.9s3.471 9.741 3.583 20.494" fill="none" stroke="#fff" stroke-linecap="round" stroke-linejoin="round" stroke-miterlimit="10" stroke-width=".2835"/>
<path d="m146.47 343.82s8.311 5.636 3.496 20.494" fill="none" stroke="#fff" stroke-linecap="round" stroke-linejoin="round" stroke-miterlimit="10" stroke-width=".2835"/>
<path d="m159.76 310.67s4.131 28.094-6.945 48.841" fill="none" stroke="#fff" stroke-linecap="round" stroke-linejoin="round" stroke-miterlimit="10" stroke-width=".2835"/>
<path d="m157.52 312.86s1.376 18.719 0 27.54" fill="none" stroke="#fff" stroke-linecap="round" stroke-linejoin="round" stroke-miterlimit="10" stroke-width=".2835"/>
<polygon points="142.24 365.72 146.42 385.06 159.7 385.06 164 366.53" fill="#ce791d"/>
<path d="M165.997,368.819h-26.365c-.313,0-.569-.256-.569-.569v-5.056c0-.313.256-.569.569-.569h26.365c.313,0,.569.256.569.569v5.056c0,.313-.256.569-.569.569Z" fill="#f7941d"/>
<polygon points="394.17 346.05 394.17 349.04 418.01 372.57 475.65 371.66 475.65 366.94" fill="#f95b5e"/>
<polygon points="394.17 346.05 440.84 346.05 475.65 366.94 418.41 368.48" fill="#f1f2f2"/>
<path d="M396.433,347.411c.528-1.004-.314-2.358-1.433-2.538-1.12-.18-2.242.614-2.689,1.656s-.32,2.255.071,3.32c.422,1.15,1.361,2.306,2.585,2.257c1.484-.06,2.283-1.767,2.543-3.23.099-.555.111-1.247-.368-1.545-.704-.438-1.491.463-1.737,1.254-.368,1.181-.455,2.495.03,3.632.486,1.137,1.632,2.037,2.867,1.984c1.728-.074,2.952-2.287,2.096-3.79-.273-.33-.823-.29-1.163-.029s-.522.674-.687,1.069c-.372.889-.735,1.808-.757,2.771-.021.963.369,1.993,1.2,2.48.563.331,1.255.374,1.902.278c1.64-.244,3.207-1.574,3.235-3.232.009-.522-.203-1.123-.702-1.279-.463-.145-.945.161-1.286.506-1.106,1.117-1.551,2.892-.96,4.348.591,1.457,2.259,2.438,3.796,2.106c1.537-.331,2.671-2.045,2.249-3.559-1.09-.262-2.157.606-2.681,1.598-.634,1.201-.746,2.707-.133,3.919.614,1.212,2.002,2.035,3.344,1.83c1.342-.206,2.46-1.541,2.277-2.887-.043-.315-.155-.63-.372-.861-.535-.569-1.54-.416-2.096.131s-.761,1.355-.871,2.128c-.231,1.626-.058,3.491,1.174,4.577.945.832,2.42.997,3.524.393c1.105-.604,1.762-1.934,1.572-3.179-.035-.231-.11-.477-.303-.61-.253-.174-.599-.082-.873.057-1.332.674-2.021,2.402-1.519,3.808s2.129,2.306,3.587,1.984s2.555-1.823,2.419-3.31c-.645-.548-1.715-.2-2.197.495s-.528,1.596-.515,2.442c.019,1.268.221,2.705,1.258,3.436c1.461,1.03,3.679-.238,4.102-1.975.118-.486.131-1.023-.104-1.464-.236-.441-.77-.746-1.249-.599-.306.094-.536.345-.723.604-.956,1.323-1.145,3.161-.479,4.651" fill="none" stroke="#383838" stroke-linecap="round" stroke-linejoin="round" stroke-miterlimit="10" stroke-width=".5669"/>
<path d="M463.34,363.422c-.634-.584-1.647-.456-2.438-.113s-1.524.866-2.377.986c-.815.114-1.627-.154-2.431-.328-1.531-.331-3.113-.322-4.679-.312-2.835.019-5.669.038-8.502.129-1.68.054-3.36.134-5.038.239-1.085.068-2.17.147-3.254.225-3.191.232-6.383.463-9.574.695" fill="none" stroke="#bcbec0" stroke-linecap="round" stroke-linejoin="round" stroke-miterlimit="10" stroke-width=".2835"/>
<path d="M459.953,360.73c-.757-.379-1.549-.761-2.395-.771s-1.761.467-1.971,1.287c-.623-.934-1.854-1.415-2.945-1.151-.444.108-.856.323-1.299.433-.649.161-1.33.086-1.996.024-1.545-.146-3.097-.222-4.649-.23-1.715-.008-3.445.07-5.107.493-.874.222-1.784.541-2.656.309-.352-.094-.675-.273-1.021-.386-.8-.26-1.667-.152-2.499-.031-1.565.228-3.124.49-4.677.787" fill="none" stroke="#bcbec0" stroke-linecap="round" stroke-linejoin="round" stroke-miterlimit="10" stroke-width=".2835"/>
<path d="M454.469,358.085c-1.26-.266-2.52-.531-3.781-.796-.474-.1-.965-.2-1.437-.095-.382.085-.725.299-1.105.39-1.069.257-2.127-.487-3.226-.512-.624-.014-1.227.205-1.84.325-.849.166-1.722.142-2.586.117-1.205-.034-2.411-.069-3.616-.103-.392-.011-.793-.021-1.164.102-.251.083-.479.224-.722.33-.759.33-1.669.289-2.394-.108-.172-.094-.346-.21-.542-.206-.315.007-.527.309-.734.546-.207.238-.576.442-.816.238" fill="none" stroke="#bcbec0" stroke-linecap="round" stroke-linejoin="round" stroke-miterlimit="10" stroke-width=".2835"/>
<path d="M450.252,355.481c-2.741.048-5.486.096-8.221-.097-1.112-.079-2.23-.198-3.338-.073-1.541.173-2.995.809-4.526,1.063-1.158.192-2.352.162-3.499-.09-.741-.162-1.467-.417-2.224-.462-.937-.057-1.866.21-2.804.208-.839-.001-1.688-.216-2.508-.041-.57.121-1.086.424-1.651.569-1.144.294-2.409-.073-3.507.362" fill="none" stroke="#bcbec0" stroke-linecap="round" stroke-linejoin="round" stroke-miterlimit="10" stroke-width=".2835"/>
<path d="M446.228,352.715c-1.358.293-2.643-.775-4.03-.859-1.289-.077-2.462.696-3.719.988-1.2.279-2.452.114-3.683.141-1.068.023-2.13.193-3.198.178-1.837-.025-3.741-.581-5.466.05" fill="none" stroke="#bcbec0" stroke-linecap="round" stroke-linejoin="round" stroke-miterlimit="10" stroke-width=".2835"/>
<path d="M443.296,350.437c-3.236.116-6.493-1.172-9.66-.496-1.299.277-2.51.874-3.801,1.188-3.199.776-6.553-.248-9.84-.055-1.201.07-2.407.304-3.6.145-.652-.087-1.335-.286-1.947-.045-.585.231-1.104.852-1.704.667-.447-.137-.831-.706-1.247-.491" fill="none" stroke="#bcbec0" stroke-linecap="round" stroke-linejoin="round" stroke-miterlimit="10" stroke-width=".2835"/>
</svg>
